<?xml version="1.0" standalone="no"?>
<!DOCTYPE svg PUBLIC "-//W3C//DTD SVG 1.1//EN" "http://www.w3.org/Graphics/SVG/1.1/DTD/svg11.dtd">
<svg version="1.1" xmlns="http://www.w3.org/2000/svg" viewBox="0 0 114.8798371638934 23.06670548465263" width="229.7596743277868" height="46.13341096930526"><!-- svg-source:excalidraw --><metadata></metadata><defs><style class="style-fonts">
      </style></defs><g stroke-linecap="round"><g transform="translate(10.903650299832236 11.203629327359522) rotate(0 46.53626828211446 0.3297234149667929)"><path d="M-0.9 -0.1 C14.67 0.36, 78.26 1.72, 93.98 1.86 M0.82 -1.2 C16.16 -1, 77 -0.37, 92.82 0.13" stroke="#ededed" stroke-width="4" fill="none"></path></g><g transform="translate(10.903650299832236 11.203629327359522) rotate(0 46.53626828211446 0.3297234149667929)"><path d="M69.16 8.22 C77.17 4.96, 86.71 1.18, 92.82 0.13 M69.16 8.22 C75.01 6.87, 82.65 4.16, 92.82 0.13" stroke="#ededed" stroke-width="4" fill="none"></path></g><g transform="translate(10.903650299832236 11.203629327359522) rotate(0 46.53626828211446 0.3297234149667929)"><path d="M69.5 -8.88 C77.27 -6.27, 86.69 -4.18, 92.82 0.13 M69.5 -8.88 C75.18 -5.65, 82.73 -3.79, 92.82 0.13" stroke="#ededed" stroke-width="4" fill="none"></path></g></g><mask></mask></svg>