<?xml version="1.0" standalone="no"?>
<!DOCTYPE svg PUBLIC "-//W3C//DTD SVG 1.1//EN" "http://www.w3.org/Graphics/SVG/1.1/DTD/svg11.dtd">
<svg version="1.1" xmlns="http://www.w3.org/2000/svg" viewBox="0 0 123.97409188986853 22.278771482575166" width="247.94818377973706" height="44.55754296515033" filter="invert(93%) hue-rotate(180deg)"><!-- svg-source:excalidraw --><metadata></metadata><defs><style class="style-fonts">
      </style></defs><g stroke-linecap="round"><g transform="translate(11.554809393389178 10.244228287683882) rotate(0 50.43223655154509 0.8951574536037015)"><path d="M-0.06 0.53 C16.91 0.67, 85.54 1.74, 102.42 2.03 M-1.55 -0.24 C15.25 0.06, 84.15 0.12, 101.7 0.23" stroke="#000000" stroke-width="4" fill="none"></path></g><g transform="translate(11.554809393389178 10.244228287683882) rotate(0 50.43223655154509 0.8951574536037015)"><path d="M78.18 8.7 C87.16 6.49, 95.47 1.56, 101.7 0.23 M78.18 8.7 C87.43 6.53, 95.86 1.94, 101.7 0.23" stroke="#000000" stroke-width="4" fill="none"></path></g><g transform="translate(11.554809393389178 10.244228287683882) rotate(0 50.43223655154509 0.8951574536037015)"><path d="M78.24 -8.4 C87.36 -4.66, 95.65 -3.64, 101.7 0.23 M78.24 -8.4 C87.33 -4.23, 95.74 -2.48, 101.7 0.23" stroke="#000000" stroke-width="4" fill="none"></path></g></g><mask></mask></svg>