<?xml version="1.0" standalone="no"?>
<!DOCTYPE svg PUBLIC "-//W3C//DTD SVG 1.1//EN" "http://www.w3.org/Graphics/SVG/1.1/DTD/svg11.dtd">
<svg version="1.1" xmlns="http://www.w3.org/2000/svg" viewBox="0 0 1552.3862662451995 508.4462703177269" width="3104.772532490399" height="1016.8925406354538"><!-- svg-source:excalidraw --><metadata></metadata><defs><style class="style-fonts">
      </style></defs><g stroke-linecap="round" transform="translate(10 114.48666649400366) rotate(0 422.70056726094003 139.70826580226822)"><path d="M32 0 C340.46 0.82, 647.88 0.63, 813.4 0 M32 0 C233.21 0.53, 433.81 0.09, 813.4 0 M813.4 0 C834.12 1.72, 845.13 10.41, 845.4 32 M813.4 0 C835.53 0.91, 843.87 11.97, 845.4 32 M845.4 32 C843.7 97.64, 846.57 161.62, 845.4 247.42 M845.4 32 C844.43 100.45, 843.96 168.15, 845.4 247.42 M845.4 247.42 C845.94 267.79, 836.03 280.84, 813.4 279.42 M845.4 247.42 C845.54 266.91, 833 277.89, 813.4 279.42 M813.4 279.42 C526.95 278.7, 240.53 278.16, 32 279.42 M813.4 279.42 C603.39 280.94, 393.06 280.95, 32 279.42 M32 279.42 C9.43 277.64, 0.52 267.52, 0 247.42 M32 279.42 C9.22 277.52, 2.08 270.29, 0 247.42 M0 247.42 C-1.34 171.39, 0.45 96.7, 0 32 M0 247.42 C-1.21 167.89, -1.42 89.05, 0 32 M0 32 C-0.48 9.08, 9.6 -1.89, 32 0 M0 32 C0.1 9.83, 8.45 -1.05, 32 0" stroke="#ededed" stroke-width="4" fill="none"></path></g><g stroke-linecap="round" transform="translate(49.51580226904366 153.33454433030784) rotate(0 158.18476499189632 101.39282820097196)"><path d="M32 0 C108.64 -3.73, 185.03 -0.05, 284.37 0 C303.35 1, 317.47 12.87, 316.37 32 C311.8 69.49, 312.69 103.79, 316.37 170.79 C316.52 194.88, 308.27 201.97, 284.37 202.79 C220.59 201.7, 155.67 203.91, 32 202.79 C11.49 205.73, -0.53 193.57, 0 170.79 C5.72 119.22, 3.72 67.98, 0 32 C-0.51 11.49, 8.1 1.49, 32 0" stroke="none" stroke-width="0" fill="#154162"></path><path d="M32 0 C99.84 -3.22, 163.25 -2.21, 284.37 0 M32 0 C124.26 0.05, 218.31 0.55, 284.37 0 M284.37 0 C306.67 -0.97, 317.74 10.29, 316.37 32 M284.37 0 C307.31 -1.31, 314.25 10.52, 316.37 32 M316.37 32 C314.88 79.32, 316.79 121.66, 316.37 170.79 M316.37 32 C316.58 77.54, 314.84 120.9, 316.37 170.79 M316.37 170.79 C317.86 190.82, 304.6 200.81, 284.37 202.79 M316.37 170.79 C316.5 189.83, 305.64 202.35, 284.37 202.79 M284.37 202.79 C227.38 201.07, 169.51 203.53, 32 202.79 M284.37 202.79 C230.51 203.72, 177.94 203.33, 32 202.79 M32 202.79 C9.6 203.09, -1.66 190.92, 0 170.79 M32 202.79 C12.47 202.79, -1.23 194.28, 0 170.79 M0 170.79 C0.75 120.84, 0.51 65.47, 0 32 M0 170.79 C-0.96 134.74, 0.41 99.68, 0 32 M0 32 C1.38 10.69, 10.15 -0.27, 32 0 M0 32 C-0.96 12.11, 8.45 0.93, 32 0" stroke="#ededed" stroke-width="4" fill="none"></path></g><g stroke-linecap="round" transform="translate(94.14035125353303 183.2330799000665) rotate(0 27.290673746684092 22.601922732811545)"><path d="M14.61 2.77 C19.21 0.2, 27.22 -0.99, 32.84 0.12 C38.45 1.22, 44.77 5.51, 48.31 9.4 C51.85 13.3, 54.1 18.82, 54.05 23.48 C54 28.14, 51.9 33.85, 48 37.36 C44.09 40.86, 36.49 43.69, 30.63 44.5 C24.77 45.3, 17.84 44.56, 12.85 42.19 C7.86 39.82, 2.39 34.86, 0.72 30.28 C-0.96 25.7, -0.18 19.69, 2.79 14.69 C5.76 9.69, 15.03 2.72, 18.53 0.27 C22.04 -2.18, 23.66 -0.45, 23.84 -0.02 M34.79 -0.52 C40.73 0.45, 47.56 5.86, 50.69 10.01 C53.81 14.16, 54.02 19.82, 53.54 24.37 C53.05 28.92, 51.83 34.04, 47.77 37.29 C43.71 40.54, 34.88 43.38, 29.15 43.88 C23.42 44.37, 18.05 42.55, 13.39 40.25 C8.72 37.95, 3.15 34.74, 1.16 30.07 C-0.83 25.39, -1 17.04, 1.43 12.21 C3.86 7.39, 10.53 3.17, 15.74 1.12 C20.94 -0.94, 29.5 -0.06, 32.67 -0.12 C35.84 -0.19, 34.76 0.45, 34.77 0.73" stroke="none" stroke-width="0" fill="#154162"></path><path d="M40.25 2.18 C45.36 3.77, 50.21 8.3, 52.49 12.76 C54.76 17.22, 55.45 24.14, 53.91 28.95 C52.38 33.75, 48.33 38.79, 43.3 41.59 C38.27 44.4, 29.86 46.27, 23.75 45.78 C17.65 45.3, 10.78 42.23, 6.67 38.7 C2.56 35.18, -0.53 29.65, -0.9 24.61 C-1.27 19.58, 0.94 12.41, 4.45 8.5 C7.95 4.59, 14.09 1.95, 20.12 1.16 C26.14 0.37, 36.92 3.39, 40.61 3.76 C44.3 4.13, 42.35 3.33, 42.25 3.38 M26.78 -0.58 C32.41 -0.93, 40.55 0.87, 45.13 4.21 C49.71 7.54, 53.16 14.37, 54.26 19.44 C55.37 24.5, 54.99 30.31, 51.77 34.58 C48.56 38.84, 40.56 43.47, 34.99 45.02 C29.42 46.57, 23.86 46.03, 18.37 43.9 C12.87 41.77, 4.93 36.32, 2.01 32.22 C-0.91 28.12, -0.54 23.91, 0.84 19.27 C2.21 14.64, 5.93 7.42, 10.26 4.41 C14.59 1.4, 23.75 1.71, 26.81 1.2 C29.88 0.69, 28.41 1.33, 28.64 1.33" stroke="#ededed" stroke-width="4" fill="none"></path></g><g stroke-linecap="round"><g transform="translate(101.23215093719182 245.73785538532138) rotate(0 -9.783382091571724 15.472741383956418)"><path d="M-0.73 0.78 C-4.26 5.89, -16.62 25.99, -20.18 30.81 M1.09 0.14 C-2.61 4.86, -17.18 23.74, -20.65 28.8" stroke="#ededed" stroke-width="4" fill="none"></path></g></g><mask></mask><g stroke-linecap="round"><g transform="translate(131.08403579265052 249.30416328379397) rotate(0 7.965265137299113 15.152393313057473)"><path d="M-0.83 -0.6 C1.88 4.48, 14.03 24.62, 16.76 29.52 M0.93 1.69 C3.53 7.04, 14.03 26.27, 16.31 30.91" stroke="#ededed" stroke-width="4" fill="none"></path></g></g><mask></mask><g stroke-linecap="round"><g transform="translate(164.47671847577772 227.02366744311985) rotate(0 24.919333570674524 11.29414059517876)"><path d="M0.89 -0.97 C8.77 2.92, 39.94 19.65, 47.76 23.56 M-0.09 1.14 C8.1 4.65, 41.55 18.01, 49.93 21.73" stroke="#ededed" stroke-width="4" fill="none"></path></g></g><mask></mask><g stroke-linecap="round"><g transform="translate(171.49198794702295 192.88098867833833) rotate(0 15.151227392707384 -1.1147234130112338)"><path d="M0.41 -0.33 C5.42 -0.75, 25.47 -2.49, 30.35 -2.92 M-0.04 0.69 C4.89 0.41, 24.93 -1.71, 30.06 -2.2" stroke="#ededed" stroke-width="4" fill="none"></path></g></g><mask></mask><g stroke-linecap="round"><g transform="translate(80.08430224023806 331.27822480706527) rotate(0 18.716765167079828 -16.392489529367595)"><path d="M1.04 -1.19 C7.32 -6.65, 31.27 -26.72, 37.3 -31.8 M0.13 0.8 C6.39 -5.09, 30.82 -27.86, 36.97 -33.59" stroke="#ededed" stroke-width="4" fill="none"></path></g></g><mask></mask><g stroke-linecap="round"><g transform="translate(125.88508336268768 296.8396292209509) rotate(0 7.94191587105405 12.603906711286982)"><path d="M-0.49 0.59 C1.83 4.56, 11.59 20.07, 14.22 24.3 M1.45 -0.14 C4.11 3.9, 14.2 21.33, 16.38 25.35" stroke="#ededed" stroke-width="4" fill="none"></path></g></g><mask></mask><g stroke-linecap="round"><g transform="translate(154.61962711690808 317.426256360206) rotate(0 14.291432883102772 -22.114688496491908)"><path d="M-0.62 -0.53 C4.3 -8.19, 24.39 -38.56, 29.21 -46.04 M1.25 1.81 C6.13 -5.68, 24.4 -37.14, 28.78 -44.77" stroke="#ededed" stroke-width="4" fill="none"></path></g></g><mask></mask><g stroke-linecap="round"><g transform="translate(187.78782117695545 265.89591333505996) rotate(0 12.54101012618419 26.944002811485007)"><path d="M-0.23 -0.53 C4.38 8.25, 22.3 43.92, 26.89 53.11 M-1.81 1.8 C2.77 10.72, 21.46 45.92, 26.29 54.42" stroke="#ededed" stroke-width="4" fill="none"></path></g></g><mask></mask><g stroke-linecap="round"><g transform="translate(220.60907827406123 305.52835933697315) rotate(0 30.01867329952323 -38.18567500088102)"><path d="M0.95 -0.33 C10.77 -12.79, 50.25 -61.76, 60.04 -74.19 M0 -1.55 C9.51 -14.42, 48.48 -64.02, 58.84 -76.04" stroke="#ededed" stroke-width="4" fill="none"></path></g></g><mask></mask><g stroke-linecap="round"><g transform="translate(294.38420304075635 230.81956597883254) rotate(0 16.286228395513298 38.299046049845856)"><path d="M-0.45 0.46 C5.22 13.41, 27.74 64.23, 33.03 76.95 M1.51 -0.35 C7.17 12.37, 27.06 62.89, 32.41 75.44" stroke="#ededed" stroke-width="4" fill="none"></path></g></g><mask></mask><g stroke-linecap="round" transform="translate(394.81297197083256 162.32365504602967) rotate(0 217.71945480164555 27.738063509827043)"><path d="M13.87 0 C145.53 3.83, 276.31 3.83, 421.57 0 C431.03 2.72, 437.15 1.28, 435.44 13.87 C435.43 19.3, 437.83 29.46, 435.44 41.61 C437.98 51.42, 432.7 57.26, 421.57 55.48 C272.85 57.86, 128.47 60.79, 13.87 55.48 C7.17 54.95, -2.45 50.49, 0 41.61 C-0.24 35.96, 3.75 28.93, 0 13.87 C-3.14 8.21, 1.7 1.5, 13.87 0" stroke="none" stroke-width="0" fill="#00422b"></path><path d="M13.87 0 C175.61 -0.59, 338.36 0.26, 421.57 0 M13.87 0 C113.73 0.78, 212.9 0.14, 421.57 0 M421.57 0 C429.25 -0.18, 436.98 2.98, 435.44 13.87 M421.57 0 C432.99 -1.89, 435.48 2.87, 435.44 13.87 M435.44 13.87 C434.64 19.43, 437.24 25.49, 435.44 41.61 M435.44 13.87 C435.72 21.21, 435.56 27.87, 435.44 41.61 M435.44 41.61 C436.19 49.01, 429.47 57.21, 421.57 55.48 M435.44 41.61 C434.71 48.7, 430.48 57.46, 421.57 55.48 M421.57 55.48 C338.15 54.8, 256.49 55.44, 13.87 55.48 M421.57 55.48 C270.67 53.69, 120.41 53.93, 13.87 55.48 M13.87 55.48 C3.72 54.48, -0.67 52.52, 0 41.61 M13.87 55.48 C5.53 53.58, 1.98 51.93, 0 41.61 M0 41.61 C1.33 35.38, -0.15 24.64, 0 13.87 M0 41.61 C-0.33 31.95, 0.05 24.21, 0 13.87 M0 13.87 C-1.58 4.77, 5.68 1.65, 13.87 0 M0 13.87 C-0.89 2.47, 4.41 -1.41, 13.87 0" stroke="#ededed" stroke-width="4" fill="none"></path></g><g stroke-linecap="round" transform="translate(399.75884126737947 256.3114820359933) rotate(0 211.41425077214927 14.720199768752536)"><path d="M7.36 0 C135.25 0.36, 262.88 0.98, 415.47 0 C421.5 -2.68, 423.78 0.25, 422.83 7.36 C420.7 10.28, 420.84 18.65, 422.83 22.08 C423.06 27.31, 422.47 26.67, 415.47 29.44 C275.5 32.54, 133.81 32.34, 7.36 29.44 C0.11 32.51, 2.61 24.27, 0 22.08 C0.42 15.95, -2.39 12.34, 0 7.36 C1.22 2.46, 2.51 -0.23, 7.36 0" stroke="none" stroke-width="0" fill="#00422b"></path><path d="M7.36 0 C106.23 -0.95, 205.35 -0.12, 415.47 0 M7.36 0 C120.41 0.73, 233.82 0.97, 415.47 0 M415.47 0 C421.56 1.54, 423.5 1.01, 422.83 7.36 M415.47 0 C421.92 -0.8, 424.5 2.74, 422.83 7.36 M422.83 7.36 C423.03 10.09, 423.26 13.61, 422.83 22.08 M422.83 7.36 C423.08 10.74, 423.68 13.61, 422.83 22.08 M422.83 22.08 C422.71 27.72, 420.79 31.41, 415.47 29.44 M422.83 22.08 C422.28 25.06, 422.12 30.8, 415.47 29.44 M415.47 29.44 C297.15 29.64, 181.2 28.44, 7.36 29.44 M415.47 29.44 C254.25 30.74, 91.79 30.44, 7.36 29.44 M7.36 29.44 C2.89 30.3, 1.25 28.96, 0 22.08 M7.36 29.44 C3.37 29.99, 0.75 25.23, 0 22.08 M0 22.08 C0.89 19.18, -0.94 14.96, 0 7.36 M0 22.08 C0.48 18.22, 0.32 12.85, 0 7.36 M0 7.36 C0.97 4.1, 3.58 1.67, 7.36 0 M0 7.36 C0.02 2.66, 4.38 -0.24, 7.36 0" stroke="#ededed" stroke-width="4" fill="none"></path></g><g stroke-linecap="round" transform="translate(400.94862985484406 315.81530669287713) rotate(0 196.89087281592697 12.303089790304512)"><path d="M6.15 0 C109.86 -2.16, 213.11 -4, 387.63 0 C389.88 2.93, 397.2 4.25, 393.78 6.15 C393.35 11.51, 391.66 14.55, 393.78 18.45 C393.63 22.79, 390.14 26.52, 387.63 24.61 C311.17 27.34, 232.48 27.38, 6.15 24.61 C2.39 24.22, -3.1 20.9, 0 18.45 C-0.66 13.98, 0.68 11.97, 0 6.15 C-2.46 -0.36, 2.47 -2.85, 6.15 0" stroke="none" stroke-width="0" fill="#00422b"></path><path d="M6.15 0 C112.55 -0.53, 219.47 -1.04, 387.63 0 M6.15 0 C128.01 -1.75, 250 -2.62, 387.63 0 M387.63 0 C393.08 -0.08, 392.86 3.52, 393.78 6.15 M387.63 0 C393.49 2.2, 391.76 2.12, 393.78 6.15 M393.78 6.15 C392.78 10.89, 393.1 15.12, 393.78 18.45 M393.78 6.15 C393.4 9.84, 393.74 14.14, 393.78 18.45 M393.78 18.45 C395.29 23.39, 393.58 24.72, 387.63 24.61 M393.78 18.45 C393.47 22.69, 392.9 24.96, 387.63 24.61 M387.63 24.61 C285.94 22.51, 183.2 23.42, 6.15 24.61 M387.63 24.61 C257.89 23.64, 127.52 23.48, 6.15 24.61 M6.15 24.61 C2.67 23.06, 0.28 20.81, 0 18.45 M6.15 24.61 C4.15 23.17, -1.59 22.41, 0 18.45 M0 18.45 C1.11 14.28, 0.85 11.49, 0 6.15 M0 18.45 C0.39 14.26, -0.18 8.52, 0 6.15 M0 6.15 C-1.7 3.92, 0.13 0.13, 6.15 0 M0 6.15 C0.76 3.35, 2.2 -1.08, 6.15 0" stroke="#ededed" stroke-width="4" fill="none"></path></g><g stroke-linecap="round" transform="translate(1079.8828092613408 10) rotate(0 231.25172849192944 244.22313515886344)"><path d="M32 0 C135.71 1.07, 238.96 -0.18, 430.5 0 M32 0 C178.93 -1.53, 326.78 -1.07, 430.5 0 M430.5 0 C453.52 -1.53, 462.78 9.46, 462.5 32 M430.5 0 C452.52 -1.61, 463.13 10.75, 462.5 32 M462.5 32 C462.17 152.9, 461.12 275.62, 462.5 456.45 M462.5 32 C463.02 143.69, 463.88 255.48, 462.5 456.45 M462.5 456.45 C461.23 478.62, 453.29 489.99, 430.5 488.45 M462.5 456.45 C463.39 475.89, 449.82 488.8, 430.5 488.45 M430.5 488.45 C300.1 488.05, 169.69 488.41, 32 488.45 M430.5 488.45 C293.29 486.39, 156.6 485.91, 32 488.45 M32 488.45 C9.32 489.61, 0.65 477.41, 0 456.45 M32 488.45 C12.1 489.06, 1.68 478.9, 0 456.45 M0 456.45 C-1.84 311.03, -1.99 164.8, 0 32 M0 456.45 C-0.29 293.06, -0.39 129.62, 0 32 M0 32 C1.35 11.5, 10.55 0.61, 32 0 M0 32 C-2.18 12.87, 8.7 1.3, 32 0" stroke="#ededed" stroke-width="4" fill="none"></path></g><g stroke-linecap="round" transform="translate(1119.6306105425874 37.50292228940452) rotate(0 184.1036258576711 118.00622714026304)"><path d="M32 0 C130.77 -1.18, 232.22 -1.33, 336.21 0 C354.03 2.03, 365.37 11.76, 368.21 32 C362.85 72.76, 368.19 108.79, 368.21 204.01 C370.72 223.34, 356.46 233.63, 336.21 236.01 C268.52 234.19, 207.73 234.88, 32 236.01 C14.04 237.42, -1.67 228.88, 0 204.01 C-3.64 153.5, -1.53 110.54, 0 32 C0.94 12.66, 9.3 2.17, 32 0" stroke="none" stroke-width="0" fill="#154162"></path><path d="M32 0 C147.06 -1.01, 263.15 0.32, 336.21 0 M32 0 C107.4 0.02, 181.56 -0.3, 336.21 0 M336.21 0 C356.07 -1.65, 370.04 9.81, 368.21 32 M336.21 0 C357.21 -0.56, 367.52 10.09, 368.21 32 M368.21 32 C369.36 77.56, 369.52 125.67, 368.21 204.01 M368.21 32 C367.26 95.32, 369.02 158.45, 368.21 204.01 M368.21 204.01 C367.88 224.61, 359.37 236.98, 336.21 236.01 M368.21 204.01 C368.33 227.27, 355.76 235.64, 336.21 236.01 M336.21 236.01 C217.36 235.1, 100.8 235.6, 32 236.01 M336.21 236.01 C274.52 237.06, 212.83 236.44, 32 236.01 M32 236.01 C11.5 234.72, -0.71 224.17, 0 204.01 M32 236.01 C9.6 237.57, 0.01 223.84, 0 204.01 M0 204.01 C0.36 167.42, -1.71 129.2, 0 32 M0 204.01 C-0.43 158.01, -0.84 111.26, 0 32 M0 32 C0.71 9.18, 9.04 -1.71, 32 0 M0 32 C-0.81 10.49, 11.08 -0.61, 32 0" stroke="#ededed" stroke-width="4" fill="none"></path></g><g stroke-linecap="round" transform="translate(1171.5669728763976 72.30038718122887) rotate(0 31.762300175498467 26.305288797430876)"><path d="M23.8 -0.08 C30.02 -1.66, 40.52 -0.09, 46.85 2.69 C53.19 5.47, 59.29 11.31, 61.82 16.6 C64.35 21.9, 64.19 29.16, 62.04 34.46 C59.88 39.76, 54.52 45.45, 48.9 48.4 C43.28 51.36, 34.96 52.98, 28.3 52.2 C21.65 51.41, 13.69 47.71, 8.97 43.71 C4.24 39.71, 0.52 33.83, -0.05 28.18 C-0.62 22.52, 1.25 14.47, 5.55 9.78 C9.86 5.08, 21.91 1.48, 25.79 -0.01 C29.67 -1.5, 28.66 0.28, 28.84 0.81 M24.91 1.43 C31.04 -0.04, 39.98 -0.4, 46.23 2.04 C52.48 4.48, 59.79 10.72, 62.44 16.09 C65.08 21.46, 64.76 28.68, 62.08 34.26 C59.4 39.84, 52.52 46.52, 46.37 49.56 C40.23 52.6, 31.5 53.78, 25.2 52.5 C18.9 51.21, 12.61 46.33, 8.59 41.83 C4.56 37.34, 1.32 31.08, 1.05 25.51 C0.77 19.95, 2.97 12.52, 6.95 8.44 C10.92 4.35, 21.79 2.48, 24.91 0.98 C28.02 -0.51, 25.34 -1.04, 25.64 -0.52" stroke="none" stroke-width="0" fill="#154162"></path><path d="M39.76 1.53 C46.14 2.56, 53.53 6.39, 57.33 10.77 C61.14 15.15, 63.22 21.96, 62.57 27.79 C61.93 33.63, 58.19 41.68, 53.45 45.77 C48.72 49.87, 40.87 52.06, 34.19 52.36 C27.5 52.66, 18.92 50.83, 13.37 47.59 C7.81 44.36, 2.53 38.44, 0.85 32.93 C-0.83 27.43, 0.34 19.8, 3.29 14.58 C6.23 9.36, 11.81 3.82, 18.54 1.6 C25.27 -0.61, 38.93 0.98, 43.65 1.28 C48.38 1.58, 47.05 3.03, 46.9 3.39 M36.75 -0.19 C43.18 0.36, 52.8 5.36, 57.28 9.94 C61.75 14.53, 63.96 21.85, 63.6 27.32 C63.24 32.79, 59.24 38.86, 55.12 42.78 C50.99 46.71, 45.55 50.04, 38.85 50.87 C32.16 51.7, 20.91 50.41, 14.92 47.76 C8.93 45.11, 4.86 40.28, 2.91 35 C0.96 29.72, 1.13 21.22, 3.23 16.09 C5.33 10.97, 9.79 6.82, 15.52 4.25 C21.25 1.68, 33.86 1.4, 37.63 0.68 C41.4 -0.04, 38.23 -0.29, 38.14 -0.07" stroke="#ededed" stroke-width="4" fill="none"></path></g><g stroke-linecap="round"><g transform="translate(1179.8207768105801 145.04668358243362) rotate(0 -12.667019520702468 18.11494642722664)"><path d="M0.62 -0.64 C-3.44 5.27, -20.78 29.47, -24.84 35.42 M-0.51 1.63 C-4.71 7.75, -22.02 31.12, -25.96 36.87" stroke="#ededed" stroke-width="4" fill="none"></path></g></g><mask></mask><g stroke-linecap="round"><g transform="translate(1214.5639471838915 149.19733750329215) rotate(0 9.438127843756092 17.092302640898197)"><path d="M-0.31 -0.17 C2.78 5.64, 16.15 28.56, 19.19 34.2 M1.72 -1.3 C4.67 4.73, 16.12 29.52, 18.65 35.49" stroke="#ededed" stroke-width="4" fill="none"></path></g></g><mask></mask><g stroke-linecap="round"><g transform="translate(1253.428081535852 123.26614197769959) rotate(0 28.027648996766004 12.496072735477355)"><path d="M0.78 -0.48 C10.22 3.84, 47.13 21.38, 56.32 25.76 M-0.27 -1.78 C9 2.68, 45.36 22.04, 55.13 26.77" stroke="#ededed" stroke-width="4" fill="none"></path></g></g><mask></mask><g stroke-linecap="round"><g transform="translate(1261.592815643407 83.52912332478081) rotate(0 17.69954977162223 -1.6941886143758893)"><path d="M-0.21 -0.46 C5.49 -1.07, 28.64 -3.35, 34.59 -3.88 M0.68 0.49 C6.52 -0.05, 29.83 -2.8, 35.61 -3.41" stroke="#ededed" stroke-width="4" fill="none"></path></g></g><mask></mask><g stroke-linecap="round"><g transform="translate(1155.2078147190787 244.60299779862908) rotate(0 21.13269063054463 -18.579700803649757)"><path d="M-0.88 -0.99 C6.39 -7.2, 36.02 -32.09, 43.15 -38.26 M0.86 1.1 C8.1 -4.86, 36.08 -30.66, 42.78 -36.99" stroke="#ededed" stroke-width="4" fill="none"></path></g></g><mask></mask><g stroke-linecap="round"><g transform="translate(1208.513136961638 204.5215758160848) rotate(0 8.921520582965229 14.306573267174826)"><path d="M1.1 -0.51 C4.19 4.49, 14.9 24.13, 17.62 29.06 M0.22 -1.83 C3.21 3.44, 13.87 25.1, 16.58 30.44" stroke="#ededed" stroke-width="4" fill="none"></path></g></g><mask></mask><g stroke-linecap="round"><g transform="translate(1241.9558878661824 228.48135917897707) rotate(0 15.381049480399781 -26.79238399033875)"><path d="M-0.17 -0.29 C5.06 -9.09, 27.03 -44.58, 32.48 -53.29 M-1.72 -1.49 C3.22 -10.07, 25.79 -43.05, 31.35 -51.91" stroke="#ededed" stroke-width="4" fill="none"></path></g></g><mask></mask><g stroke-linecap="round"><g transform="translate(1280.5587507267014 168.5076759162148) rotate(0 14.936024899250526 30.614202414787542)"><path d="M-0.36 -0.3 C4.71 10.2, 25.22 52.24, 30.23 62.73 M1.65 -1.51 C6.55 8.66, 24.04 49.89, 29.13 60.83" stroke="#ededed" stroke-width="4" fill="none"></path></g></g><mask></mask><g stroke-linecap="round"><g transform="translate(1318.7578303731739 214.6339701325669) rotate(0 35.813245102007215 -44.066372702461194)"><path d="M-0.3 0.41 C11.37 -13.97, 58.02 -72.11, 69.64 -86.6 M1.75 -0.41 C13.83 -15.15, 60.26 -73.85, 71.92 -88.55" stroke="#ededed" stroke-width="4" fill="none"></path></g></g><mask></mask><g stroke-linecap="round"><g transform="translate(1404.6211432424407 127.68400537844173) rotate(0 18.98761329990191 44.046083073321824)"><path d="M-0.81 0.33 C5.35 15.04, 30.32 73.85, 36.63 88.63 M0.97 -0.54 C7.51 13.76, 32.94 72.13, 38.78 86.74" stroke="#ededed" stroke-width="4" fill="none"></path></g></g><mask></mask><g stroke-linecap="round" transform="translate(1123.2080405714858 300.51621126271857) rotate(0 184.25689334904723 27.738063509827043)"><path d="M13.87 0 C128.85 -2.66, 238.45 -1.99, 354.64 0 C361.81 -1.44, 365.88 2.88, 368.51 13.87 C367.37 19.02, 369.68 27.06, 368.51 41.61 C366.65 50.96, 362.37 57.78, 354.64 55.48 C227.9 59.14, 100.07 58.66, 13.87 55.48 C6.71 57.76, 3.1 50.33, 0 41.61 C-1.43 33.91, -0.75 19.85, 0 13.87 C-1.01 3.3, 4.47 -1.46, 13.87 0" stroke="none" stroke-width="0" fill="#00422b"></path><path d="M13.87 0 C83.45 -1.73, 156.45 0.62, 354.64 0 M13.87 0 C103.65 1.91, 193.44 1.43, 354.64 0 M354.64 0 C365.6 -1, 367.04 6.25, 368.51 13.87 M354.64 0 C362.27 1.87, 370.32 5.81, 368.51 13.87 M368.51 13.87 C368.03 24.04, 368.66 29.96, 368.51 41.61 M368.51 13.87 C368.35 20.16, 367.74 26.65, 368.51 41.61 M368.51 41.61 C367.7 51.17, 364.23 53.93, 354.64 55.48 M368.51 41.61 C369.02 51.94, 363.76 56.24, 354.64 55.48 M354.64 55.48 C227.8 56.18, 102.66 54.52, 13.87 55.48 M354.64 55.48 C272.72 56.05, 192.22 55.94, 13.87 55.48 M13.87 55.48 C4.01 53.92, 1.72 49.05, 0 41.61 M13.87 55.48 C4.08 55.84, -0.3 50.48, 0 41.61 M0 41.61 C0.91 36.52, -0.71 27.98, 0 13.87 M0 41.61 C0.24 34.71, 0.26 26.54, 0 13.87 M0 13.87 C-0.3 5.42, 3.36 -1.15, 13.87 0 M0 13.87 C0.64 6.19, 2.77 -1.81, 13.87 0" stroke="#ededed" stroke-width="4" fill="none"></path></g><g stroke-linecap="round" transform="translate(1123.3665046718834 384.0377624801604) rotate(0 186.0855543381823 14.720199768752536)"><path d="M7.36 0 C84.5 -3.18, 163.94 -0.21, 364.81 0 C366.63 1.87, 371.41 5.24, 372.17 7.36 C372.8 10.52, 373.15 18.21, 372.17 22.08 C370.96 23.51, 368.14 28.84, 364.81 29.44 C242.5 28.43, 118.47 27.72, 7.36 29.44 C1.95 27.8, -1.69 24.93, 0 22.08 C-2.17 17.26, -2.77 11.82, 0 7.36 C0.28 1.32, 1.68 -1.75, 7.36 0" stroke="none" stroke-width="0" fill="#00422b"></path><path d="M7.36 0 C144.24 0.21, 282.06 0.12, 364.81 0 M7.36 0 C99.82 -0.53, 192.98 -1.09, 364.81 0 M364.81 0 C368.57 0.88, 373.11 0.52, 372.17 7.36 M364.81 0 C369.02 0.52, 373.53 2.31, 372.17 7.36 M372.17 7.36 C370.81 12.71, 373.33 18.13, 372.17 22.08 M372.17 7.36 C371.78 10.09, 372.49 13.46, 372.17 22.08 M372.17 22.08 C371.09 25.16, 370.47 27.96, 364.81 29.44 M372.17 22.08 C373.25 25.24, 368.29 28.4, 364.81 29.44 M364.81 29.44 C281.36 30.71, 197.38 30.5, 7.36 29.44 M364.81 29.44 C268.21 28.72, 171.34 28.5, 7.36 29.44 M7.36 29.44 C4.32 30.17, 0.56 25.63, 0 22.08 M7.36 29.44 C2.75 29.15, -1.82 28.64, 0 22.08 M0 22.08 C-0.79 16.26, 0.07 10.62, 0 7.36 M0 22.08 C0.21 17.25, -0.2 13.59, 0 7.36 M0 7.36 C1 2.68, 1.41 0.09, 7.36 0 M0 7.36 C-0.89 3.49, 3.84 1.92, 7.36 0" stroke="#ededed" stroke-width="4" fill="none"></path></g><g stroke-linecap="round" transform="translate(1125.3126078518803 440.4275059598658) rotate(0 185.5810003440754 12.303089790304512)"><path d="M6.15 0 C76.47 0.26, 151.14 1.04, 365.01 0 C369.63 0.27, 371.44 2.15, 371.16 6.15 C371.92 8.79, 372.71 16.12, 371.16 18.45 C374.26 19.04, 367.04 25.24, 365.01 24.61 C281.2 26.13, 197.14 24.05, 6.15 24.61 C-0.9 23.41, -1.88 21.34, 0 18.45 C-2.03 16.06, -2.36 9.9, 0 6.15 C2.88 -0.95, 0.67 -0.8, 6.15 0" stroke="none" stroke-width="0" fill="#00422b"></path><path d="M6.15 0 C102.76 1.22, 197.13 1.08, 365.01 0 M6.15 0 C82.32 -2.12, 158.55 -1.55, 365.01 0 M365.01 0 C370.83 -1.59, 369.94 1, 371.16 6.15 M365.01 0 C368.09 0.93, 369.86 2.64, 371.16 6.15 M371.16 6.15 C372.05 11.08, 370.16 13.55, 371.16 18.45 M371.16 6.15 C371.01 9.38, 371.3 12.6, 371.16 18.45 M371.16 18.45 C372.88 21.47, 368.17 26.18, 365.01 24.61 M371.16 18.45 C373.3 21.96, 367.64 24.21, 365.01 24.61 M365.01 24.61 C286.27 25.26, 206.38 24.39, 6.15 24.61 M365.01 24.61 C235.25 25.07, 105.71 24.62, 6.15 24.61 M6.15 24.61 C1.12 26.27, -0.65 23.68, 0 18.45 M6.15 24.61 C2.26 25.17, 2.06 23.83, 0 18.45 M0 18.45 C1.15 14.47, -0.11 10.65, 0 6.15 M0 18.45 C0.29 13.83, -0.52 9.92, 0 6.15 M0 6.15 C-1.49 2.62, 1.66 1.48, 6.15 0 M0 6.15 C-1.94 3.96, 1.68 -1.61, 6.15 0" stroke="#ededed" stroke-width="4" fill="none"></path></g></svg>