<?xml version="1.0" standalone="no"?>
<!DOCTYPE svg PUBLIC "-//W3C//DTD SVG 1.1//EN" "http://www.w3.org/Graphics/SVG/1.1/DTD/svg11.dtd">
<svg version="1.1" xmlns="http://www.w3.org/2000/svg" viewBox="0 0 81.71277281676453 192.9994484623585" width="163.42554563352905" height="385.998896924717"><!-- svg-source:excalidraw --><metadata></metadata><defs><style class="style-fonts">
      </style></defs><g transform="translate(71.71277281676453 10) rotate(0 -30.856386408382264 86.49972423117924)" stroke="none"><path fill="#ededed" d="M 0,2.63 Q 0,2.63 -1.22,2.64 -2.45,2.65 -4.37,2.71 -6.30,2.77 -8.11,2.81 -9.93,2.86 -11.03,2.87 -12.13,2.87 -13.57,3.32 -15.01,3.76 -16.64,4.48 -18.27,5.20 -19.77,6.02 -21.27,6.83 -22.64,7.58 -24.01,8.33 -24.87,9.42 -25.74,10.52 -26.41,11.60 -27.09,12.67 -27.54,14.28 -27.99,15.88 -28.04,17.34 -28.09,18.79 -28.11,20.44 -28.13,22.09 -28.14,23.85 -28.16,25.61 -28.31,28.39 -28.46,31.16 -28.66,33.27 -28.86,35.37 -28.89,36.93 -28.93,38.50 -28.92,39.84 -28.92,41.18 -28.95,42.77 -28.98,44.37 -28.98,45.72 -28.97,47.07 -28.90,49.10 -28.83,51.13 -28.75,52.43 -28.68,53.72 -28.63,55.82 -28.57,57.92 -28.53,59.49 -28.48,61.06 -28.45,62.82 -28.43,64.57 -28.70,65.92 -28.97,67.26 -29.57,68.46 -30.17,69.65 -30.84,70.53 -31.50,71.41 -32.44,72.61 -33.38,73.81 -34.19,74.58 -35.00,75.35 -36.03,76.13 -37.05,76.91 -38.38,77.66 -39.71,78.40 -41.37,78.67 -43.03,78.93 -44.58,78.99 -46.14,79.05 -47.67,79.04 -49.20,79.04 -50.31,79.01 -51.41,78.98 -52.59,78.95 -53.77,78.92 -55.04,78.94 -56.31,78.96 -57.37,78.73 -58.42,78.50 -59.57,78.15 -60.71,77.81 -61.55,77.56 -62.40,77.32 -62.77,77.15 -63.15,76.99 -63.48,76.74 -63.81,76.49 -64.07,76.17 -64.33,75.85 -64.51,75.47 -64.68,75.10 -64.77,74.70 -64.85,74.29 -64.83,73.88 -64.81,73.47 -64.69,73.07 -64.58,72.67 -64.37,72.32 -64.16,71.96 -63.87,71.66 -63.59,71.36 -63.24,71.15 -62.89,70.93 -62.49,70.80 -62.10,70.67 -61.69,70.64 -61.28,70.60 -60.87,70.67 -60.46,70.74 -59.25,70.53 -58.03,70.32 -56.76,70.21 -55.50,70.09 -54.34,70.08 -53.18,70.07 -52.04,69.93 -50.91,69.78 -49.65,69.67 -48.39,69.55 -46.85,69.49 -45.31,69.43 -43.69,69.43 -42.07,69.42 -39.96,69.48 -37.85,69.53 -36.04,69.87 -34.23,70.20 -33.01,70.52 -31.79,70.83 -30.62,71.45 -29.45,72.06 -28.58,72.73 -27.71,73.39 -26.38,74.51 -25.06,75.62 -23.77,76.86 -22.49,78.11 -21.73,79.11 -20.98,80.11 -20.48,81.19 -19.98,82.27 -19.87,83.67 -19.77,85.07 -19.75,86.14 -19.74,87.21 -19.74,88.73 -19.75,90.25 -19.77,91.99 -19.79,93.72 -19.81,95.50 -19.82,97.28 -19.91,98.80 -20.00,100.31 -20.04,101.63 -20.08,102.95 -20.10,104.19 -20.12,105.42 -20.14,106.62 -20.16,107.82 -20.17,109.00 -20.18,110.19 -20.44,111.64 -20.71,113.09 -20.80,114.76 -20.89,116.43 -20.89,118.19 -20.89,119.94 -20.88,121.72 -20.86,123.50 -21.36,126.45 -21.86,129.40 -22.02,130.79 -22.18,132.19 -22.24,133.43 -22.30,134.68 -22.38,136.29 -22.46,137.90 -22.47,139.27 -22.48,140.63 -22.52,142.24 -22.56,143.84 -22.48,145.67 -22.40,147.50 -22.33,148.61 -22.26,149.72 -22.18,150.88 -22.10,152.05 -21.80,153.49 -21.50,154.92 -21.20,156.53 -20.90,158.13 -20.81,159.52 -20.73,160.91 -20.49,162.07 -20.25,163.24 -18.93,163.37 -17.61,163.51 -16.42,164.17 -15.23,164.83 -14.30,165.39 -13.38,165.95 -12.22,166.61 -11.06,167.26 -9.92,168.48 -8.77,169.69 -8.28,170.00 -7.79,170.32 -7.42,170.77 -7.06,171.22 -6.86,171.77 -6.65,172.31 -6.64,172.90 -6.62,173.48 -6.79,174.03 -6.96,174.59 -7.30,175.06 -7.64,175.53 -8.11,175.87 -8.59,176.21 -9.14,176.38 -9.70,176.56 -10.28,176.54 -10.86,176.52 -11.40,176.32 -11.95,176.12 -12.40,175.76 -12.86,175.40 -13.17,174.91 -13.48,174.42 -13.63,173.85 -13.77,173.29 -13.72,172.71 -13.67,172.13 -13.44,171.59 -13.21,171.06 -12.82,170.63 -12.44,170.19 -11.93,169.91 -11.42,169.62 -10.85,169.51 -10.28,169.40 -9.71,169.48 -9.13,169.56 -8.61,169.82 -8.09,170.07 -7.68,170.49 -7.27,170.90 -7.01,171.42 -6.75,171.94 -6.67,172.51 -6.59,173.09 -6.70,173.66 -6.81,174.23 -7.10,174.74 -7.38,175.24 -7.81,175.63 -8.25,176.02 -8.78,176.25 -9.32,176.48 -9.89,176.53 -10.47,176.58 -11.04,176.44 -11.60,176.30 -11.60,176.30 -11.60,176.30 -13.66,174.51 -15.72,172.72 -16.76,172.03 -17.79,171.35 -19.23,170.53 -20.67,169.72 -21.84,169.14 -23.01,168.56 -24.36,167.62 -25.70,166.68 -26.23,165.52 -26.76,164.35 -27.04,162.71 -27.32,161.06 -27.34,159.67 -27.35,158.28 -27.41,156.80 -27.46,155.33 -27.74,153.69 -28.02,152.05 -27.94,150.88 -27.87,149.72 -27.79,148.61 -27.72,147.49 -27.63,145.66 -27.55,143.83 -27.58,142.21 -27.62,140.59 -27.61,139.21 -27.60,137.82 -27.63,136.13 -27.66,134.44 -27.60,133.07 -27.54,131.70 -27.42,130.09 -27.31,128.49 -27.16,125.99 -27.01,123.50 -26.99,121.70 -26.97,119.90 -26.92,118.05 -26.87,116.19 -26.82,115.05 -26.77,113.91 -26.45,112.04 -26.13,110.17 -26.14,108.99 -26.15,107.82 -26.17,106.62 -26.18,105.42 -26.21,104.19 -26.23,102.95 -26.27,101.63 -26.31,100.31 -26.42,97.79 -26.52,95.27 -26.54,93.51 -26.55,91.74 -26.57,90.07 -26.58,88.40 -26.57,87.24 -26.56,86.08 -26.56,84.58 -26.56,83.08 -27.30,82.13 -28.04,81.19 -29.04,80.19 -30.03,79.20 -31.29,78.25 -32.56,77.30 -33.82,76.75 -35.08,76.21 -36.47,76.09 -37.86,75.98 -39.20,76.04 -40.55,76.10 -42.24,76.11 -43.92,76.12 -45.19,76.13 -46.45,76.13 -47.84,76.20 -49.22,76.27 -51.10,76.52 -52.98,76.77 -54.59,76.86 -56.20,76.94 -57.95,77.18 -59.70,77.42 -61.05,77.37 -62.39,77.32 -62.77,77.15 -63.15,76.99 -63.48,76.74 -63.81,76.49 -64.07,76.17 -64.33,75.85 -64.51,75.48 -64.68,75.10 -64.77,74.70 -64.85,74.29 -64.83,73.88 -64.81,73.47 -64.69,73.07 -64.58,72.67 -64.37,72.32 -64.16,71.96 -63.87,71.66 -63.59,71.37 -63.24,71.15 -62.89,70.93 -62.50,70.80 -62.10,70.67 -61.69,70.64 -61.28,70.60 -60.87,70.67 -60.46,70.74 -59.55,71.05 -58.64,71.36 -57.44,71.87 -56.24,72.38 -55.00,72.40 -53.77,72.42 -52.59,72.39 -51.41,72.35 -49.38,72.31 -47.35,72.27 -45.73,72.29 -44.10,72.31 -42.97,72.29 -41.85,72.27 -40.44,71.37 -39.03,70.46 -38.21,69.57 -37.39,68.68 -36.44,67.62 -35.48,66.57 -35.00,65.55 -34.52,64.54 -34.50,62.80 -34.47,61.06 -34.42,59.49 -34.38,57.92 -34.32,55.82 -34.27,53.72 -34.20,52.43 -34.12,51.13 -34.05,49.10 -33.98,47.07 -33.97,45.72 -33.96,44.37 -34.00,42.77 -34.03,41.18 -34.03,39.84 -34.02,38.50 -34.06,36.93 -34.09,35.37 -34.29,33.26 -34.49,31.16 -34.64,28.39 -34.79,25.61 -34.80,23.83 -34.81,22.06 -34.81,20.33 -34.81,18.60 -34.72,17.16 -34.63,15.71 -34.29,14.37 -33.96,13.03 -33.59,11.55 -33.23,10.07 -32.64,9.13 -32.05,8.19 -31.16,7.11 -30.27,6.04 -29.47,5.27 -28.68,4.50 -27.80,3.71 -26.93,2.91 -25.58,2.25 -24.23,1.58 -22.49,0.70 -20.75,-0.17 -18.70,-1.01 -16.66,-1.86 -15.53,-2.18 -14.40,-2.50 -13.27,-2.69 -12.15,-2.87 -11.04,-2.87 -9.93,-2.86 -8.11,-2.81 -6.30,-2.77 -4.37,-2.71 -2.45,-2.65 -1.22,-2.64 0,-2.63 0.31,-2.59 0.63,-2.55 0.92,-2.44 1.22,-2.33 1.48,-2.15 1.74,-1.97 1.95,-1.73 2.16,-1.49 2.31,-1.21 2.46,-0.93 2.53,-0.62 2.61,-0.31 2.61,0.00 2.61,0.31 2.53,0.62 2.46,0.93 2.31,1.21 2.16,1.49 1.95,1.73 1.74,1.97 1.48,2.15 1.22,2.33 0.92,2.44 0.63,2.55 0.31,2.59 -0.00,2.63 -0.00,2.63 L 0,2.63 Z"></path></g></svg>