<?xml version="1.0" standalone="no"?>
<!DOCTYPE svg PUBLIC "-//W3C//DTD SVG 1.1//EN" "http://www.w3.org/Graphics/SVG/1.1/DTD/svg11.dtd">
<svg version="1.1" xmlns="http://www.w3.org/2000/svg" viewBox="0 0 84.6081992924419 204.4441468031273" width="169.2163985848838" height="408.8882936062546"><!-- svg-source:excalidraw --><metadata></metadata><defs><style class="style-fonts">
      </style></defs><g transform="translate(67.7852227078015 10) rotate(0 -25.481123061580547 92.22207340156365)" stroke="none"><path fill="#ededed" d="M 0.45,2.44 Q 0.45,2.44 -1.71,2.69 -3.87,2.94 -5.04,3.31 -6.20,3.67 -7.70,4.18 -9.20,4.69 -11.12,5.51 -13.05,6.33 -14.63,7.12 -16.21,7.91 -17.05,8.89 -17.90,9.86 -19.05,11.25 -20.21,12.64 -21.34,14.71 -22.47,16.77 -23.24,18.45 -24.00,20.14 -24.47,21.51 -24.93,22.89 -25.38,24.23 -25.82,25.57 -26.23,26.81 -26.63,28.06 -27.07,30.36 -27.50,32.65 -28.04,35.91 -28.59,39.17 -28.73,40.74 -28.86,42.32 -28.89,43.65 -28.92,44.97 -28.86,46.95 -28.80,48.92 -28.77,50.04 -28.75,51.17 -28.69,53.02 -28.62,54.88 -28.57,56.68 -28.52,58.48 -28.51,59.58 -28.51,60.68 -28.50,61.82 -28.50,62.97 -28.50,64.12 -28.50,65.28 -28.47,67.16 -28.43,69.04 -28.39,70.52 -28.34,72.00 -28.28,73.35 -28.22,74.70 -28.51,75.94 -28.80,77.19 -30.25,78.33 -31.69,79.48 -33.46,79.60 -35.24,79.72 -37.67,79.63 -40.09,79.53 -42.30,79.10 -44.50,78.68 -45.87,78.38 -47.25,78.09 -48.98,77.79 -50.71,77.48 -51.82,77.18 -52.93,76.88 -54.42,76.29 -55.91,75.69 -56.94,74.87 -57.96,74.06 -58.77,73.04 -59.57,72.03 -60.11,71.54 -60.65,71.04 -60.76,70.66 -60.87,70.27 -60.89,69.87 -60.91,69.47 -60.83,69.08 -60.75,68.69 -60.57,68.33 -60.40,67.96 -60.15,67.65 -59.89,67.34 -59.57,67.10 -59.25,66.86 -58.88,66.70 -58.52,66.55 -58.12,66.48 -57.72,66.42 -57.32,66.45 -56.93,66.48 -56.54,66.61 -56.16,66.74 -55.83,66.95 -55.49,67.17 -55.21,67.46 -54.93,67.75 -54.73,68.09 -54.53,68.44 -56.97,67.79 -59.41,67.13 -57.94,66.71 -56.47,66.29 -54.85,66.29 -53.23,66.29 -50.87,66.53 -48.51,66.76 -46.52,67.14 -44.52,67.51 -43.39,67.82 -42.25,68.14 -40.36,68.55 -38.46,68.96 -36.75,69.61 -35.04,70.27 -33.79,70.91 -32.55,71.55 -31.27,71.98 -29.99,72.41 -29.04,73.06 -28.09,73.71 -26.90,74.59 -25.72,75.46 -24.93,76.23 -24.13,77.00 -22.80,78.26 -21.46,79.52 -20.59,80.41 -19.72,81.31 -19.15,82.42 -18.58,83.53 -18.03,85.16 -17.48,86.79 -17.19,88.90 -16.89,91.02 -16.69,93.71 -16.48,96.40 -16.51,98.81 -16.54,101.21 -16.66,103.93 -16.78,106.65 -16.97,108.75 -17.16,110.84 -17.28,112.82 -17.40,114.81 -17.53,117.41 -17.66,120.02 -17.76,122.22 -17.86,124.42 -17.94,129.11 -18.01,133.80 -18.06,136.89 -18.12,139.98 -18.12,141.96 -18.13,143.95 -18.17,146.40 -18.21,148.85 -18.51,151.08 -18.82,153.31 -18.85,154.86 -18.88,156.40 -18.90,158.13 -18.91,159.86 -18.85,161.27 -18.80,162.69 -18.64,164.40 -18.49,166.11 -18.37,167.42 -18.25,168.73 -17.89,169.75 -17.52,170.76 -16.90,171.83 -16.29,172.90 -15.46,173.95 -14.64,175.00 -13.62,175.80 -12.61,176.60 -11.40,177.37 -10.19,178.14 -9.04,178.90 -7.90,179.67 -6.87,180.10 -5.84,180.54 -4.31,180.80 -2.79,181.05 -1.43,181.03 -0.08,181.01 1.10,180.99 2.29,180.97 3.36,180.95 4.42,180.92 3.95,181.21 3.48,181.49 3.76,180.99 4.04,180.48 4.46,180.10 4.88,179.71 5.41,179.48 5.93,179.25 6.50,179.20 7.07,179.15 7.63,179.28 8.19,179.41 8.67,179.72 9.16,180.02 9.52,180.46 9.88,180.91 10.09,181.44 10.29,181.98 10.31,182.55 10.33,183.12 10.17,183.67 10.00,184.22 9.67,184.69 9.34,185.16 8.88,185.49 8.42,185.83 7.87,186.01 7.33,186.18 6.76,186.17 6.18,186.16 5.64,185.97 5.10,185.77 4.65,185.42 4.21,185.06 3.89,184.58 3.58,184.10 3.44,183.55 3.29,183.00 3.33,182.42 3.38,181.85 3.60,181.33 3.82,180.80 4.20,180.37 4.58,179.94 5.07,179.65 5.57,179.37 6.13,179.25 6.69,179.14 7.26,179.21 7.83,179.28 8.34,179.53 8.86,179.78 9.27,180.18 9.67,180.59 9.93,181.10 10.19,181.61 10.27,182.17 10.36,182.74 10.25,183.30 10.15,183.87 10.15,183.87 10.15,183.87 7.29,185.91 4.42,187.95 3.35,187.93 2.28,187.91 1.08,187.88 -0.11,187.86 -1.29,187.80 -2.48,187.75 -4.20,187.38 -5.93,187.01 -7.31,186.71 -8.69,186.41 -9.70,185.93 -10.72,185.45 -11.79,184.66 -12.86,183.87 -14.01,183.04 -15.15,182.21 -16.59,180.98 -18.03,179.76 -19.09,178.47 -20.15,177.19 -21.01,175.74 -21.88,174.29 -22.36,173.12 -22.85,171.95 -22.98,170.34 -23.11,168.73 -22.98,167.41 -22.86,166.09 -22.68,164.36 -22.50,162.63 -22.40,161.20 -22.30,159.77 -22.22,157.97 -22.13,156.17 -21.93,154.55 -21.72,152.94 -21.48,150.89 -21.24,148.85 -21.28,146.40 -21.32,143.95 -21.32,141.96 -21.33,139.98 -21.38,136.89 -21.44,133.80 -21.51,129.11 -21.59,124.42 -21.69,122.22 -21.79,120.02 -21.92,117.41 -22.05,114.81 -22.17,112.82 -22.29,110.84 -22.49,108.75 -22.68,106.66 -22.81,103.97 -22.95,101.28 -23.03,99.91 -23.11,98.54 -23.23,96.71 -23.36,94.87 -23.60,93.80 -23.84,92.73 -23.90,91.00 -23.95,89.27 -24.21,88.04 -24.46,86.80 -25.12,85.80 -25.79,84.80 -26.46,83.96 -27.14,83.11 -28.55,81.97 -29.96,80.83 -31.01,80.04 -32.06,79.26 -32.96,78.50 -33.87,77.74 -35.73,76.94 -37.60,76.13 -38.85,75.60 -40.10,75.07 -41.94,74.69 -43.79,74.30 -44.94,74.05 -46.09,73.79 -47.81,73.50 -49.52,73.21 -51.37,73.10 -53.22,72.99 -54.44,72.61 -55.65,72.23 -58.15,71.64 -60.65,71.05 -60.76,70.66 -60.87,70.28 -60.89,69.87 -60.91,69.47 -60.83,69.08 -60.75,68.69 -60.57,68.33 -60.40,67.96 -60.15,67.65 -59.89,67.34 -59.57,67.10 -59.25,66.86 -58.88,66.70 -58.52,66.55 -58.12,66.48 -57.72,66.42 -57.33,66.45 -56.93,66.48 -56.55,66.61 -56.17,66.74 -55.83,66.95 -55.49,67.17 -55.21,67.46 -54.93,67.75 -54.73,68.09 -54.53,68.44 -54.91,68.06 -55.29,67.68 -54.42,68.57 -53.55,69.46 -52.67,70.27 -51.79,71.08 -50.41,71.58 -49.03,72.09 -47.56,72.47 -46.08,72.85 -45.00,73.10 -43.92,73.35 -42.01,73.37 -40.10,73.39 -38.45,73.28 -36.81,73.17 -35.66,73.93 -34.51,74.70 -34.45,73.35 -34.39,72.00 -34.34,70.52 -34.30,69.04 -34.26,67.16 -34.23,65.28 -34.23,64.12 -34.23,62.97 -34.23,61.82 -34.23,60.68 -34.22,59.58 -34.21,58.48 -34.16,56.68 -34.10,54.88 -34.04,53.01 -33.97,51.15 -33.94,50.01 -33.91,48.88 -33.78,46.84 -33.66,44.80 -33.59,43.39 -33.51,41.98 -33.41,40.28 -33.31,38.58 -33.22,36.32 -33.12,34.05 -32.95,32.69 -32.78,31.33 -32.50,30.28 -32.22,29.24 -31.99,27.82 -31.76,26.40 -31.36,25.17 -30.96,23.94 -30.57,22.64 -30.17,21.33 -29.73,19.65 -29.28,17.96 -28.28,15.93 -27.27,13.89 -26.66,12.86 -26.05,11.82 -25.38,10.53 -24.71,9.23 -23.86,8.15 -23.01,7.07 -21.70,5.88 -20.39,4.70 -19.44,3.96 -18.49,3.23 -17.38,2.74 -16.26,2.25 -14.56,1.74 -12.85,1.22 -11.76,0.85 -10.67,0.47 -9.04,-0.10 -7.40,-0.69 -6.04,-1.01 -4.68,-1.34 -2.56,-1.89 -0.45,-2.44 -0.15,-2.46 0.14,-2.48 0.43,-2.42 0.73,-2.37 1.00,-2.25 1.27,-2.13 1.51,-1.94 1.75,-1.76 1.93,-1.52 2.12,-1.29 2.24,-1.02 2.37,-0.74 2.42,-0.45 2.48,-0.15 2.46,0.13 2.44,0.43 2.35,0.72 2.27,1.01 2.11,1.26 1.96,1.52 1.75,1.73 1.54,1.95 1.28,2.10 1.02,2.26 0.74,2.35 0.45,2.44 0.45,2.44 L 0.45,2.44 Z"></path></g></svg>