<?xml version="1.0" standalone="no"?>
<!DOCTYPE svg PUBLIC "-//W3C//DTD SVG 1.1//EN" "http://www.w3.org/Graphics/SVG/1.1/DTD/svg11.dtd">
<svg version="1.1" xmlns="http://www.w3.org/2000/svg" viewBox="0 0 3040.7613236116763 1677.0090369462455" width="6081.522647223353" height="3354.018073892491"><!-- svg-source:excalidraw --><metadata></metadata><defs><style class="style-fonts">
      </style></defs><g stroke-linecap="round" transform="translate(10 11.104251823023901) rotate(0 699.1350494622711 364.04880677668723)"><path d="M32 0 C363.65 -4.04, 694.28 -2.66, 1366.27 0 M32 0 C544.34 -3.01, 1056.11 -2.93, 1366.27 0 M1366.27 0 C1386.89 1.2, 1399.16 11.65, 1398.27 32 M1366.27 0 C1387.69 0.72, 1397.45 12.04, 1398.27 32 M1398.27 32 C1400 287.17, 1399.32 543.72, 1398.27 696.1 M1398.27 32 C1400.56 289.85, 1401.12 547.11, 1398.27 696.1 M1398.27 696.1 C1399.36 719.06, 1389.07 729.21, 1366.27 728.1 M1398.27 696.1 C1399.7 719.17, 1389.55 727.13, 1366.27 728.1 M1366.27 728.1 C1089.33 733.38, 814.06 732.64, 32 728.1 M1366.27 728.1 C1002.21 733.14, 637.44 733.01, 32 728.1 M32 728.1 C12.58 727.8, 1.44 715.68, 0 696.1 M32 728.1 C10.15 727.46, 0.9 719.09, 0 696.1 M0 696.1 C-0.91 528.24, -1.08 361.52, 0 32 M0 696.1 C-1.61 492.86, -2.03 288.73, 0 32 M0 32 C1.02 10.77, 11.79 -0.61, 32 0 M0 32 C-0.96 12.86, 12.25 0.22, 32 0" stroke="#ededed" stroke-width="4" fill="none"></path></g><g stroke-linecap="round" transform="translate(79.65613936756381 74.74589156856644) rotate(0 49.82051836415076 48.62993671293839)"><path d="M60 -0.03 C67.86 0.62, 75.21 5.48, 81.41 10.86 C87.62 16.24, 94.48 24.47, 97.23 32.26 C99.97 40.05, 99.51 49.65, 97.9 57.61 C96.28 65.58, 92.92 73.79, 87.52 80.05 C82.13 86.31, 73.38 92.41, 65.52 95.17 C57.65 97.93, 48.34 98.13, 40.33 96.62 C32.31 95.1, 23.82 91.29, 17.45 86.09 C11.08 80.89, 4.83 73.31, 2.1 65.43 C-0.63 57.56, -0.61 46.86, 1.1 38.84 C2.8 30.81, 6.82 23.47, 12.32 17.29 C17.83 11.12, 25.99 4.31, 34.14 1.78 C42.29 -0.75, 56.17 1.84, 61.24 2.13 C66.31 2.42, 64.59 3.03, 64.55 3.53 M42.71 2.14 C50.73 0.48, 60.81 1.25, 68.22 4.01 C75.64 6.77, 82.2 12.55, 87.19 18.71 C92.17 24.88, 96.52 32.98, 98.14 41.01 C99.75 49.03, 99.61 59.21, 96.87 66.87 C94.13 74.52, 87.97 81.97, 81.69 86.92 C75.41 91.87, 67.36 95.18, 59.16 96.55 C50.97 97.92, 40.4 97.87, 32.53 95.14 C24.66 92.41, 17.02 86.56, 11.96 80.17 C6.9 73.79, 3.51 64.65, 2.16 56.82 C0.8 48.99, 1.29 40.91, 3.82 33.21 C6.34 25.5, 10.81 15.81, 17.29 10.57 C23.78 5.33, 38.6 3.16, 42.73 1.77 C46.86 0.37, 41.96 1.8, 42.07 2.19" stroke="none" stroke-width="0" fill="#6e757c"></path><path d="M40.15 1.49 C47.69 -0.45, 57.03 0.93, 64.97 3.45 C72.91 5.97, 82.06 10.53, 87.77 16.6 C93.49 22.67, 97.89 31.84, 99.27 39.88 C100.65 47.91, 98.78 57.11, 96.07 64.83 C93.37 72.55, 89.11 81.06, 83.04 86.22 C76.98 91.38, 67.75 94.36, 59.69 95.77 C51.63 97.18, 42.51 97.24, 34.66 94.66 C26.82 92.08, 18.42 86.54, 12.63 80.27 C6.85 74, 1.79 64.85, -0.03 57.04 C-1.84 49.23, -1 41.05, 1.75 33.41 C4.49 25.78, 9.06 16.61, 16.42 11.21 C23.79 5.81, 40.3 2.6, 45.96 1.03 C51.63 -0.54, 50.51 1.12, 50.42 1.79 M55.46 -0.19 C63.4 -0.23, 71.78 3.21, 78.57 7.85 C85.35 12.49, 92.59 20.17, 96.16 27.66 C99.73 35.14, 100.74 44.53, 100 52.78 C99.26 61.03, 96.78 70.67, 91.7 77.14 C86.62 83.61, 77.19 88.29, 69.5 91.6 C61.82 94.9, 53.48 97.57, 45.59 96.97 C37.69 96.37, 29 92.84, 22.13 87.99 C15.27 83.14, 8.01 74.95, 4.41 67.88 C0.8 60.82, -0.11 53.3, 0.51 45.59 C1.13 37.88, 3.6 28.38, 8.13 21.65 C12.66 14.92, 20.05 8.87, 27.67 5.21 C35.29 1.54, 49.42 0.43, 53.85 -0.34 C58.27 -1.11, 54.14 -0.14, 54.23 0.58" stroke="#ededed" stroke-width="4" fill="none"></path></g><g stroke-linecap="round" transform="translate(239.21662241662807 94.94305128498138) rotate(0 552.147374617422 28.435463081690443)"><path d="M14.22 0 C285.68 -6.46, 557.66 -5.98, 1090.08 0 C1098.89 1.35, 1100.78 5.38, 1104.29 14.22 C1105.82 22.55, 1103.56 26.93, 1104.29 42.65 C1104.03 55.53, 1097.2 53.92, 1090.08 56.87 C695.18 64.23, 300.64 62.55, 14.22 56.87 C7.97 59.08, 3.54 51.41, 0 42.65 C0.87 34.55, 2.11 24.72, 0 14.22 C-3.2 8.33, 7.99 -2.16, 14.22 0" stroke="none" stroke-width="0" fill="#6e757c"></path><path d="M14.22 0 C265.83 -3.62, 515.75 -3.53, 1090.08 0 M14.22 0 C280.51 -0.93, 546.31 -0.69, 1090.08 0 M1090.08 0 C1099.53 0, 1105.5 5.37, 1104.29 14.22 M1090.08 0 C1100.3 2.22, 1104.3 5.84, 1104.29 14.22 M1104.29 14.22 C1105.89 26.93, 1104.78 37.51, 1104.29 42.65 M1104.29 14.22 C1104.65 24.63, 1103.37 34.5, 1104.29 42.65 M1104.29 42.65 C1105.97 51.05, 1098.47 55.74, 1090.08 56.87 M1104.29 42.65 C1106.08 50.8, 1097.67 58.31, 1090.08 56.87 M1090.08 56.87 C726.02 61.73, 361.45 60.23, 14.22 56.87 M1090.08 56.87 C724.21 56.77, 357.94 57.25, 14.22 56.87 M14.22 56.87 C3.38 57.3, -1.63 50.73, 0 42.65 M14.22 56.87 C3.93 58.03, 2.11 51.96, 0 42.65 M0 42.65 C-0.18 31.75, -0.52 21.99, 0 14.22 M0 42.65 C-0.78 35.59, -0.89 29.6, 0 14.22 M0 14.22 C0.49 4.7, 5.57 -1.21, 14.22 0 M0 14.22 C-1.19 6.76, 6.45 1.44, 14.22 0" stroke="#ededed" stroke-width="4" fill="none"></path></g><g stroke-linecap="round" transform="translate(97.23440545833864 238.10250486052246) rotate(0 619.4943278742014 83.89765988139129)"><path d="M32 0 C480.67 -1.13, 929.98 -0.94, 1206.99 0 C1230.47 -1.78, 1240.99 9.46, 1238.99 32 C1242.98 65.25, 1244.14 97.85, 1238.99 135.8 C1237.83 160.63, 1229.23 166.49, 1206.99 167.8 C763.54 166.82, 322.57 167.74, 32 167.8 C9.75 168.11, -0.12 154.61, 0 135.8 C2.4 100.57, 2.04 65.75, 0 32 C1.33 8.18, 8.25 2.27, 32 0" stroke="none" stroke-width="0" fill="#3791e0"></path><path d="M32 0 C323.61 -0.88, 615.55 -0.08, 1206.99 0 M32 0 C422.16 4.34, 813.2 4.87, 1206.99 0 M1206.99 0 C1228.05 -1.48, 1240.74 9.96, 1238.99 32 M1206.99 0 C1226.44 -0.47, 1238.44 11.02, 1238.99 32 M1238.99 32 C1240.43 58.37, 1239.98 87.26, 1238.99 135.8 M1238.99 32 C1238.21 62.28, 1238.24 91.06, 1238.99 135.8 M1238.99 135.8 C1238 158.6, 1229.16 169.43, 1206.99 167.8 M1238.99 135.8 C1239.65 159.41, 1226.9 166.59, 1206.99 167.8 M1206.99 167.8 C780.06 170.06, 353.53 170.37, 32 167.8 M1206.99 167.8 C946.94 169.28, 687.22 169.29, 32 167.8 M32 167.8 C8.99 166.59, -0.82 156.37, 0 135.8 M32 167.8 C10.52 167.77, -0.03 156.55, 0 135.8 M0 135.8 C-1.81 105.74, -1.16 77.27, 0 32 M0 135.8 C-0.97 97.96, -0.73 58.54, 0 32 M0 32 C0.89 10, 9.44 1.53, 32 0 M0 32 C-0.17 12.65, 12 1.18, 32 0" stroke="#ededed" stroke-width="4" fill="none"></path></g><g stroke-linecap="round" transform="translate(99.21248435891312 472.83784158341894) rotate(0 615.5215619967332 94.45567651447504)"><path d="M32 0 C374.78 5.48, 713.92 6.24, 1199.04 0 C1217.15 -1.53, 1230.21 7.94, 1231.04 32 C1230.33 77.95, 1227.45 122.1, 1231.04 156.91 C1229.45 179.18, 1219.24 191.84, 1199.04 188.91 C915.36 180.99, 630.3 182.18, 32 188.91 C11.57 189.7, 0.22 181.14, 0 156.91 C-3.43 106.21, 0.69 60.84, 0 32 C1 11.81, 12.86 0.18, 32 0" stroke="none" stroke-width="0" fill="#6e757c"></path><path d="M32 0 C327.17 0.39, 622.14 0.15, 1199.04 0 M32 0 C478.93 2.97, 925.4 3.6, 1199.04 0 M1199.04 0 C1220.78 -0.49, 1229.54 9.49, 1231.04 32 M1199.04 0 C1218.87 2.11, 1230.26 10.14, 1231.04 32 M1231.04 32 C1230.76 66.83, 1232.05 99.97, 1231.04 156.91 M1231.04 32 C1230.97 77.14, 1231.72 123.36, 1231.04 156.91 M1231.04 156.91 C1231.3 176.93, 1219.53 188.49, 1199.04 188.91 M1231.04 156.91 C1230.33 180.16, 1221.51 189.67, 1199.04 188.91 M1199.04 188.91 C936.29 189.37, 673.53 189.31, 32 188.91 M1199.04 188.91 C854.62 184.37, 509.57 184.27, 32 188.91 M32 188.91 C10.35 188.98, -1.27 176.89, 0 156.91 M32 188.91 C10.46 191.11, 1.45 176.78, 0 156.91 M0 156.91 C-1.2 122.4, 1.15 85.71, 0 32 M0 156.91 C-1.03 115.85, -1.07 75.43, 0 32 M0 32 C1.78 9, 12.22 -1.38, 32 0 M0 32 C2.04 10.54, 12.43 -1.63, 32 0" stroke="#ededed" stroke-width="4" fill="none"></path></g><g stroke-linecap="round" transform="translate(1628.9207081104455 10) rotate(0 699.1350494622711 364.04880677668723)"><path d="M32 0 C503.14 4.41, 973.96 4.22, 1366.27 0 M32 0 C392.67 -0.12, 752.7 0.19, 1366.27 0 M1366.27 0 C1386.58 1.6, 1399.62 10.48, 1398.27 32 M1366.27 0 C1386.66 1.54, 1399.14 10.57, 1398.27 32 M1398.27 32 C1399.72 198.56, 1398.93 367.17, 1398.27 696.1 M1398.27 32 C1399.08 289.97, 1398.57 547.59, 1398.27 696.1 M1398.27 696.1 C1398.45 717.52, 1388.06 728.16, 1366.27 728.1 M1398.27 696.1 C1398.03 718.35, 1387.54 726.57, 1366.27 728.1 M1366.27 728.1 C924.51 732.64, 482.42 731.44, 32 728.1 M1366.27 728.1 C1076.29 727.69, 785.66 727.48, 32 728.1 M32 728.1 C9.17 729.54, 1.16 717.94, 0 696.1 M32 728.1 C11.48 727.61, 0.95 717.7, 0 696.1 M0 696.1 C-1.11 550.01, -1.73 402.94, 0 32 M0 696.1 C2.32 480.66, 2.33 265.04, 0 32 M0 32 C-1.6 12.49, 9.25 -0.02, 32 0 M0 32 C-1.67 12.26, 8.71 1.57, 32 0" stroke="#ededed" stroke-width="4" fill="none"></path></g><g stroke-linecap="round" transform="translate(1698.5768474780093 73.64163974554253) rotate(0 49.82051836415076 48.62993671293839)"><path d="M30.31 4.43 C37.19 0.51, 47.55 -1.22, 55.87 -0.51 C64.18 0.2, 73.61 3.9, 80.2 8.71 C86.79 13.52, 92.11 20.93, 95.42 28.33 C98.73 35.73, 100.83 44.87, 100.04 53.09 C99.25 61.3, 95.7 70.93, 90.67 77.6 C85.64 84.27, 77.65 89.85, 69.86 93.12 C62.06 96.38, 52.04 98.08, 43.89 97.17 C35.74 96.26, 27.64 92.34, 20.95 87.68 C14.26 83.02, 7.34 76.61, 3.75 69.19 C0.15 61.77, -1.44 51.28, -0.61 43.19 C0.22 35.1, 2.57 27.7, 8.71 20.66 C14.84 13.62, 30.31 4.26, 36.22 0.95 C42.14 -2.37, 43.97 -0.15, 44.17 0.75 M48.67 -1.36 C56.65 -1.97, 65.71 2.97, 72.77 6.87 C79.83 10.76, 86.75 15.13, 91.01 22.01 C95.26 28.89, 97.82 39.9, 98.29 48.17 C98.75 56.44, 97.6 64.84, 93.79 71.61 C89.98 78.38, 82.74 84.57, 75.43 88.78 C68.12 92.99, 58.26 96.44, 49.92 96.88 C41.58 97.33, 32.35 95.32, 25.39 91.47 C18.43 87.61, 12.25 80.74, 8.15 73.75 C4.04 66.76, 1.24 57.53, 0.74 49.51 C0.24 41.48, 1.08 32.59, 5.15 25.6 C9.21 18.61, 18.13 12.06, 25.14 7.57 C32.14 3.08, 43.1 -0.4, 47.18 -1.34 C51.27 -2.28, 49.41 0.77, 49.63 1.93" stroke="none" stroke-width="0" fill="#6e757c"></path><path d="M38.6 1.64 C46.01 -0.91, 55.53 -0.88, 63.44 1.34 C71.34 3.57, 80.1 8.8, 86.05 14.98 C92.01 21.16, 97.29 30.49, 99.17 38.4 C101.06 46.32, 99.81 54.77, 97.36 62.47 C94.9 70.17, 90.51 79.09, 84.44 84.6 C78.37 90.11, 69.07 93.83, 60.95 95.54 C52.82 97.25, 43.57 97.33, 35.69 94.88 C27.8 92.44, 19.47 86.63, 13.62 80.87 C7.76 75.11, 2.3 68.02, 0.54 60.3 C-1.22 52.58, 0.45 42.28, 3.07 34.55 C5.69 26.82, 9.12 19.72, 16.27 13.92 C23.42 8.13, 39.95 1.92, 45.98 -0.21 C52.02 -2.35, 52.51 0.2, 52.48 1.12 M50.59 -0.99 C58.59 -1.49, 68.59 3.5, 75.9 7.97 C83.21 12.44, 90.26 18.76, 94.44 25.84 C98.62 32.92, 101.43 42.7, 100.96 50.46 C100.49 58.22, 96.21 65.65, 91.64 72.39 C87.06 79.13, 80.38 86.54, 73.51 90.92 C66.63 95.29, 58.55 98.62, 50.39 98.62 C42.22 98.63, 32.04 95.15, 24.5 90.93 C16.96 86.72, 9.09 80.46, 5.15 73.34 C1.21 66.22, 0.46 56.56, 0.87 48.22 C1.29 39.88, 3.39 30.3, 7.62 23.32 C11.84 16.33, 19.26 10.05, 26.23 6.3 C33.2 2.55, 45.43 1.6, 49.44 0.81 C53.46 0.03, 49.93 1, 50.32 1.58" stroke="#ededed" stroke-width="4" fill="none"></path></g><g stroke-linecap="round" transform="translate(1858.1373305270736 93.83879946195748) rotate(0 552.1473746174219 28.435463081690443)"><path d="M14.22 0 C357.94 2.66, 701.7 1.05, 1090.08 0 C1096.15 2.87, 1103.42 1.74, 1104.29 14.22 C1103.55 24.26, 1100.48 32.63, 1104.29 42.65 C1104.86 48.82, 1097.76 59.3, 1090.08 56.87 C857.63 50.12, 623.31 49.51, 14.22 56.87 C1.7 53.76, -0.86 50.37, 0 42.65 C1.48 32.86, -2.29 25.62, 0 14.22 C3.41 5.61, 1.75 -3.27, 14.22 0" stroke="none" stroke-width="0" fill="#6e757c"></path><path d="M14.22 0 C313.66 1.98, 613.53 2.27, 1090.08 0 M14.22 0 C230.53 1.31, 447.53 0.95, 1090.08 0 M1090.08 0 C1098.73 1.34, 1105.05 4.65, 1104.29 14.22 M1090.08 0 C1098.45 1.07, 1103.74 5.33, 1104.29 14.22 M1104.29 14.22 C1105.85 20.54, 1104.89 27.93, 1104.29 42.65 M1104.29 14.22 C1104.27 24.59, 1104.41 34.9, 1104.29 42.65 M1104.29 42.65 C1104.08 52.93, 1099.5 55.55, 1090.08 56.87 M1104.29 42.65 C1105.02 53.75, 1101.21 58.15, 1090.08 56.87 M1090.08 56.87 C671.57 53.96, 254.27 54.97, 14.22 56.87 M1090.08 56.87 C668.8 58.85, 248.36 58.66, 14.22 56.87 M14.22 56.87 C5.45 56.45, 0.82 52.37, 0 42.65 M14.22 56.87 C2.92 58.11, -0.45 53.05, 0 42.65 M0 42.65 C0.6 30.16, 1.99 21.57, 0 14.22 M0 42.65 C-0.89 33.48, -0.8 22.48, 0 14.22 M0 14.22 C-1.45 6.13, 3.04 1.37, 14.22 0 M0 14.22 C0.47 4.7, 4.67 -1.13, 14.22 0" stroke="#ededed" stroke-width="4" fill="none"></path></g><g stroke-linecap="round" transform="translate(1696.036192239042 254.77456023980483) rotate(0 188.47793571728914 204.70469556660942)"><path d="M32 0 C118.55 -4.3, 207.34 -1.91, 344.96 0 C365.41 -3, 379.13 8.46, 376.96 32 C374.16 120.9, 376.84 210.36, 376.96 377.41 C375.16 401.18, 363.3 406.68, 344.96 409.41 C278.65 408.94, 210.69 407.57, 32 409.41 C9.81 407.65, 0.14 400.56, 0 377.41 C-3.31 282.26, 0.27 187.36, 0 32 C-2.99 7.4, 13.49 2.25, 32 0" stroke="none" stroke-width="0" fill="#3791e0"></path><path d="M32 0 C111.66 0.47, 190.06 -1.23, 344.96 0 M32 0 C119.18 -1.84, 205.11 -1.3, 344.96 0 M344.96 0 C367.05 -0.09, 375.99 11.6, 376.96 32 M344.96 0 C365.73 0.59, 374.89 9, 376.96 32 M376.96 32 C379.48 163.34, 379.79 291.81, 376.96 377.41 M376.96 32 C377.31 149.17, 377.09 266.55, 376.96 377.41 M376.96 377.41 C376.9 397.42, 366.92 410.82, 344.96 409.41 M376.96 377.41 C378.61 400.02, 368.32 411.01, 344.96 409.41 M344.96 409.41 C269.99 409.94, 196.75 408.91, 32 409.41 M344.96 409.41 C239.22 411.2, 132.91 410.87, 32 409.41 M32 409.41 C11.49 409.64, -1.58 399.82, 0 377.41 M32 409.41 C10.21 410.33, 1.87 397.88, 0 377.41 M0 377.41 C0.67 260.92, 0.16 144.08, 0 32 M0 377.41 C1.35 252.74, 1.34 128.54, 0 32 M0 32 C-1.7 12.03, 11.08 -0.03, 32 0 M0 32 C-0.07 9.54, 11.13 1.37, 32 0" stroke="#ededed" stroke-width="4" fill="none"></path></g><g stroke-linecap="round" transform="translate(2151.586179987661 255.90271892717612) rotate(0 188.47793571728914 204.70469556660942)"><path d="M32 0 C137.39 -3.68, 245.56 -5.1, 344.96 0 C363.09 2.89, 376.41 9.77, 376.96 32 C376.15 160.61, 373.59 285.57, 376.96 377.41 C380.31 401.14, 369.5 412.39, 344.96 409.41 C241.71 407.9, 142.58 408.3, 32 409.41 C13.64 411.11, -0.02 397.12, 0 377.41 C4.77 300.26, 4.4 225.6, 0 32 C3.58 11.04, 11.33 -1.21, 32 0" stroke="none" stroke-width="0" fill="#6e757c"></path><path d="M32 0 C112.48 -0.62, 194.54 -0.48, 344.96 0 M32 0 C116.06 2.57, 201.13 2.56, 344.96 0 M344.96 0 C365.85 -0.31, 378.89 8.87, 376.96 32 M344.96 0 C366.05 1.42, 375.13 12.61, 376.96 32 M376.96 32 C374.58 160.46, 376.3 289.04, 376.96 377.41 M376.96 32 C378.83 155.8, 378.46 280.35, 376.96 377.41 M376.96 377.41 C377.79 397.29, 364.67 407.54, 344.96 409.41 M376.96 377.41 C378.88 396.9, 367.07 409.02, 344.96 409.41 M344.96 409.41 C233.99 407.75, 124.38 408.03, 32 409.41 M344.96 409.41 C238.92 407.59, 132.26 407.72, 32 409.41 M32 409.41 C9.83 407.74, 0.25 398.3, 0 377.41 M32 409.41 C9.89 409.05, -0.57 399.87, 0 377.41 M0 377.41 C-1.41 293.04, -1.14 207.6, 0 32 M0 377.41 C-0.47 274.25, -0.68 172.23, 0 32 M0 32 C0 11.3, 11.57 1.49, 32 0 M0 32 C0.96 10.35, 8.93 0.09, 32 0" stroke="#ededed" stroke-width="4" fill="none"></path></g><g stroke-linecap="round" transform="translate(2590.176696392732 251.56199274986886) rotate(0 188.47793571728914 204.70469556660942)"><path d="M32 0 C101.7 -0.19, 167.16 0.64, 344.96 0 C367.06 -3.12, 373.68 13.13, 376.96 32 C377.78 107.17, 377.46 181.44, 376.96 377.41 C379.85 401.57, 363.2 411.45, 344.96 409.41 C243.36 409.91, 143.84 409.94, 32 409.41 C11.64 408.98, 3.32 396.44, 0 377.41 C-1.98 307.27, -1.03 238.11, 0 32 C2.35 11.8, 7.41 -2.13, 32 0" stroke="none" stroke-width="0" fill="#6e757c"></path><path d="M32 0 C155.92 0.69, 281.07 0.08, 344.96 0 M32 0 C121.35 1.3, 209.39 1.64, 344.96 0 M344.96 0 C365.19 1.66, 378.35 10.91, 376.96 32 M344.96 0 C365.18 -0.64, 379.04 12, 376.96 32 M376.96 32 C374.15 103.77, 374.37 176.84, 376.96 377.41 M376.96 32 C374.52 113.64, 374.51 196.2, 376.96 377.41 M376.96 377.41 C375.03 399.77, 365.58 407.41, 344.96 409.41 M376.96 377.41 C376.46 398.77, 366.64 410.18, 344.96 409.41 M344.96 409.41 C242.06 410.5, 135.44 412.43, 32 409.41 M344.96 409.41 C280.2 409.36, 214.26 408.6, 32 409.41 M32 409.41 C11.04 410.16, 0.82 397.27, 0 377.41 M32 409.41 C12.73 410.84, -1.69 397.31, 0 377.41 M0 377.41 C-1.48 250.33, -2.49 125.38, 0 32 M0 377.41 C1.66 245.99, 1.41 115.15, 0 32 M0 32 C-1.28 10.27, 10.65 -0.17, 32 0 M0 32 C1.86 11.32, 11.94 -1.73, 32 0" stroke="#ededed" stroke-width="4" fill="none"></path></g><g stroke-linecap="round" transform="translate(27.446863139122797 938.9114233928711) rotate(0 699.1350494622711 364.04880677668723)"><path d="M32 0 C298.5 -2.07, 566.34 -2.63, 1366.27 0 M32 0 C458.36 3.68, 885.11 3.63, 1366.27 0 M1366.27 0 C1389.5 1.28, 1399.34 10.88, 1398.27 32 M1366.27 0 C1386.54 -1.2, 1396.09 8.46, 1398.27 32 M1398.27 32 C1396.53 274.15, 1396.49 517.17, 1398.27 696.1 M1398.27 32 C1399.39 209.14, 1399.16 385.95, 1398.27 696.1 M1398.27 696.1 C1399.33 717.25, 1386.05 729.22, 1366.27 728.1 M1398.27 696.1 C1397.52 717.54, 1388.79 726.53, 1366.27 728.1 M1366.27 728.1 C1004.36 728.44, 642.53 728.66, 32 728.1 M1366.27 728.1 C956.53 732.93, 546.89 733.04, 32 728.1 M32 728.1 C8.88 728.06, 0.8 715.46, 0 696.1 M32 728.1 C10.9 728.66, 1.51 716.3, 0 696.1 M0 696.1 C2.16 517.03, 1.87 338.08, 0 32 M0 696.1 C0.24 538.62, 0.46 381.06, 0 32 M0 32 C0.5 10.32, 9.57 0.43, 32 0 M0 32 C0.23 10.65, 10.1 -2.06, 32 0" stroke="#ededed" stroke-width="4" fill="none"></path></g><g stroke-linecap="round" transform="translate(97.10300250668661 1002.5530631384137) rotate(0 49.82051836415076 48.62993671293839)"><path d="M47.2 0.5 C55.1 -0.56, 64.98 2, 72.34 5.49 C79.7 8.99, 86.79 14.73, 91.36 21.49 C95.94 28.25, 99.3 37.92, 99.78 46.06 C100.26 54.2, 98.2 63.14, 94.26 70.35 C90.33 77.56, 83.02 84.87, 76.17 89.32 C69.32 93.77, 61.36 96.5, 53.15 97.06 C44.93 97.62, 34.53 96.46, 26.87 92.67 C19.22 88.88, 11.8 81.19, 7.24 74.32 C2.68 67.45, -0.1 59.32, -0.47 51.45 C-0.84 43.58, 1.05 34.22, 5.01 27.08 C8.96 19.95, 15.92 13.21, 23.29 8.63 C30.66 4.05, 44.39 0.88, 49.23 -0.41 C54.06 -1.71, 52.37 -0.03, 52.29 0.86 M72.57 6.5 C80.08 9.32, 86.98 15.06, 91.38 21.6 C95.79 28.14, 98.29 37.48, 98.99 45.74 C99.69 53.99, 99.44 63.62, 95.59 71.11 C91.74 78.6, 82.9 86.39, 75.91 90.7 C68.92 95, 61.88 96.96, 53.64 96.93 C45.41 96.9, 34.08 94.18, 26.52 90.53 C18.96 86.87, 12.83 81.46, 8.3 74.98 C3.76 68.51, -0.45 59.57, -0.7 51.66 C-0.95 43.76, 2.89 34.66, 6.79 27.54 C10.7 20.41, 16.21 13.56, 22.74 8.91 C29.27 4.26, 37.47 0.43, 45.96 -0.36 C54.45 -1.15, 69.26 3.28, 73.68 4.19 C78.09 5.1, 73.23 4.44, 72.44 5.11" stroke="none" stroke-width="0" fill="#6e757c"></path><path d="M45.85 -0.06 C53.66 -1.12, 64.35 1.86, 71.91 5.63 C79.46 9.39, 86.46 15.82, 91.17 22.54 C95.88 29.26, 99.6 38.11, 100.17 45.96 C100.75 53.82, 98.48 62.63, 94.62 69.66 C90.76 76.68, 84.08 83.41, 77 88.1 C69.92 92.79, 60.47 96.96, 52.14 97.81 C43.81 98.66, 34.22 97.05, 27.01 93.21 C19.8 89.37, 13.3 81.78, 8.88 74.76 C4.47 67.75, 1.22 59, 0.54 51.12 C-0.15 43.25, 1.06 34.62, 4.79 27.52 C8.52 20.42, 14.4 13.1, 22.91 8.52 C31.43 3.95, 49.03 0.9, 55.87 0.07 C62.7 -0.76, 64.08 2.83, 63.91 3.55 M64.4 0.88 C72.19 2.36, 79.63 9.08, 85.28 15.07 C90.93 21.06, 96.28 28.99, 98.31 36.81 C100.34 44.64, 99.75 54.19, 97.46 62.01 C95.17 69.84, 90.64 77.92, 84.57 83.77 C78.51 89.62, 69.28 95.08, 61.08 97.14 C52.88 99.19, 43.4 98.39, 35.39 96.12 C27.38 93.85, 18.91 89.48, 13.04 83.51 C7.16 77.54, 1.87 68.6, 0.12 60.29 C-1.62 51.99, 0.01 41.4, 2.55 33.68 C5.1 25.96, 9.37 19.46, 15.42 13.96 C21.46 8.47, 30.87 2.93, 38.83 0.69 C46.79 -1.55, 58.95 0.25, 63.17 0.53 C67.39 0.8, 64.38 1.49, 64.16 2.32" stroke="#ededed" stroke-width="4" fill="none"></path></g><g stroke-linecap="round" transform="translate(256.66348555575087 1022.7502228548286) rotate(0 552.147374617422 28.435463081690443)"><path d="M14.22 0 C406.19 7.22, 799.21 7.61, 1090.08 0 C1102.1 2.58, 1102.95 3.26, 1104.29 14.22 C1104.51 26.77, 1101.48 31.89, 1104.29 42.65 C1104.68 55.04, 1099.07 55.64, 1090.08 56.87 C809.14 62.87, 528.62 65.04, 14.22 56.87 C4.11 55.15, -3.48 52.71, 0 42.65 C3.57 36.72, 0.46 28.73, 0 14.22 C-2.93 3.71, 7.79 -2.63, 14.22 0" stroke="none" stroke-width="0" fill="#6e757c"></path><path d="M14.22 0 C397.84 0.36, 780.6 0.43, 1090.08 0 M14.22 0 C345.28 0.51, 675.79 0.3, 1090.08 0 M1090.08 0 C1098.63 -1.04, 1102.39 2.82, 1104.29 14.22 M1090.08 0 C1101.07 -1.84, 1106.5 5.83, 1104.29 14.22 M1104.29 14.22 C1103.75 20.92, 1106 26.76, 1104.29 42.65 M1104.29 14.22 C1104.76 23.74, 1103.45 34.01, 1104.29 42.65 M1104.29 42.65 C1103.64 52.23, 1100.59 55.51, 1090.08 56.87 M1104.29 42.65 C1103.63 52.39, 1099.75 56.68, 1090.08 56.87 M1090.08 56.87 C783.63 57.06, 477.76 57.11, 14.22 56.87 M1090.08 56.87 C712.18 60.17, 335.15 59.78, 14.22 56.87 M14.22 56.87 C4.94 57.36, 1.31 51.15, 0 42.65 M14.22 56.87 C4.03 54.76, 1.24 51.33, 0 42.65 M0 42.65 C-1.05 34.6, -0.5 26.73, 0 14.22 M0 42.65 C0.13 33.63, -0.67 25.17, 0 14.22 M0 14.22 C0.2 4.72, 4.24 -1.79, 14.22 0 M0 14.22 C-0.06 6.1, 4.45 -1.02, 14.22 0" stroke="#ededed" stroke-width="4" fill="none"></path></g><g stroke-linecap="round" transform="translate(598.4507717459351 1199.7889950296703) rotate(0 378.57910357539504 82.46059407212397)"><path d="M32 0 C176.73 -0.14, 323.53 0.29, 725.16 0 C745.15 -1.48, 757.96 10.1, 757.16 32 C754.57 53.2, 757.7 78.63, 757.16 132.92 C756.68 153.02, 745.11 164.17, 725.16 164.92 C455.52 162.47, 183.13 160.65, 32 164.92 C7.19 165.5, -0.39 152.4, 0 132.92 C-1.47 102.12, -4.59 65.24, 0 32 C3.05 8.04, 11.84 -2.5, 32 0" stroke="none" stroke-width="0" fill="#3791e0"></path><path d="M32 0 C230.26 0.59, 429.67 1.22, 725.16 0 M32 0 C236.05 -1.73, 439.48 -1.98, 725.16 0 M725.16 0 C744.59 -1.92, 758.47 9.07, 757.16 32 M725.16 0 C748.69 1.09, 755.08 11.65, 757.16 32 M757.16 32 C758.4 55.74, 757.58 77.73, 757.16 132.92 M757.16 32 C756.92 62.31, 757.37 91.54, 757.16 132.92 M757.16 132.92 C758.19 152.89, 745.92 165.15, 725.16 164.92 M757.16 132.92 C757.36 154.06, 746.14 164.78, 725.16 164.92 M725.16 164.92 C508.69 163.27, 291.24 163.12, 32 164.92 M725.16 164.92 C464.14 164.47, 202.84 164.97, 32 164.92 M32 164.92 C11.98 163.94, -0.61 152.42, 0 132.92 M32 164.92 C11.91 164.12, -0.56 152.6, 0 132.92 M0 132.92 C-0.07 105.77, 0.86 79.97, 0 32 M0 132.92 C-0.8 102.71, -0.15 72.07, 0 32 M0 32 C-0.5 8.88, 10.61 1.19, 32 0 M0 32 C-0.29 9.65, 12.16 -1.99, 32 0" stroke="#ededed" stroke-width="4" fill="none"></path></g><g stroke-linecap="round" transform="translate(116.13814645062621 1192.0191571993873) rotate(0 199.95969781667463 204.70469556660942)"><path d="M32 0 C145.95 -3.92, 262.24 -3.31, 367.92 0 C386.25 0.29, 403.31 7.93, 399.92 32 C400.05 128.44, 399.45 226.01, 399.92 377.41 C403.19 399.79, 386.67 412.53, 367.92 409.41 C238.35 407.85, 113.21 406.22, 32 409.41 C11.75 412.72, 2.29 398.94, 0 377.41 C5.33 247.88, 4.09 120.16, 0 32 C-2.83 7.32, 10.41 -3.25, 32 0" stroke="none" stroke-width="0" fill="#6e757c"></path><path d="M32 0 C127.02 -0.13, 223.07 -0.68, 367.92 0 M32 0 C135.76 0.53, 241.24 0.64, 367.92 0 M367.92 0 C391.17 0.95, 398.11 11.52, 399.92 32 M367.92 0 C387.62 -0.77, 400.78 12.49, 399.92 32 M399.92 32 C400.72 147.19, 400.67 259.96, 399.92 377.41 M399.92 32 C399.52 154.57, 398.99 278.12, 399.92 377.41 M399.92 377.41 C400.09 398.57, 388.95 409.28, 367.92 409.41 M399.92 377.41 C400.23 398.9, 388.15 411.4, 367.92 409.41 M367.92 409.41 C282.1 406.86, 194.18 408.6, 32 409.41 M367.92 409.41 C300.62 409.63, 232.24 409.35, 32 409.41 M32 409.41 C11.75 408.71, -0.49 397.3, 0 377.41 M32 409.41 C9.9 407.96, -0.25 397.94, 0 377.41 M0 377.41 C-0.24 278.38, -0.48 177.97, 0 32 M0 377.41 C-0.39 265.77, -0.25 155.7, 0 32 M0 32 C-0.25 9.78, 11.97 -1.73, 32 0 M0 32 C-2.08 9.42, 11.01 -0.84, 32 0" stroke="#ededed" stroke-width="4" fill="none"></path></g><g stroke-linecap="round" transform="translate(607.2218431594329 1405.5907594561086) rotate(0 373.14451331789087 93.23366618337752)"><path d="M32 0 C249.29 -0.53, 465.81 -0.87, 714.29 0 C733.85 -2.13, 742.92 11.93, 746.29 32 C744.22 76.01, 744.63 110.34, 746.29 154.47 C744.19 175.57, 739.17 186.27, 714.29 186.47 C451.26 187.58, 189.66 187.67, 32 186.47 C10.72 186.47, -1.99 177.91, 0 154.47 C1.95 105.56, -2.87 59.22, 0 32 C3.56 13.26, 11.24 -2.92, 32 0" stroke="none" stroke-width="0" fill="#6e757c"></path><path d="M32 0 C257.5 -2.51, 483.92 -3.11, 714.29 0 M32 0 C247.12 -0.14, 462.89 0.21, 714.29 0 M714.29 0 C736.74 -1.19, 747.96 10.06, 746.29 32 M714.29 0 C735.93 0.23, 747.3 11.99, 746.29 32 M746.29 32 C744.97 66.4, 744.77 101.61, 746.29 154.47 M746.29 32 C745.65 61.11, 747.28 89.1, 746.29 154.47 M746.29 154.47 C744.32 175.94, 735.86 187.46, 714.29 186.47 M746.29 154.47 C747.25 174.99, 737.15 187.44, 714.29 186.47 M714.29 186.47 C537.74 187.91, 361.66 187.17, 32 186.47 M714.29 186.47 C513.74 186.82, 313.52 186.78, 32 186.47 M32 186.47 C9.65 187.99, -1.7 174.71, 0 154.47 M32 186.47 C12.73 186.5, -1.1 174.63, 0 154.47 M0 154.47 C1.42 112.12, 0.01 66.6, 0 32 M0 154.47 C-0.45 117.01, -1.55 78.1, 0 32 M0 32 C-0.98 12.43, 12.13 -0.43, 32 0 M0 32 C1.71 12.07, 12.14 1.86, 32 0" stroke="#ededed" stroke-width="4" fill="none"></path></g><g stroke-linecap="round" transform="translate(1632.491224687134 935.8913821573559) rotate(0 699.1350494622711 364.04880677668723)"><path d="M32 0 C536.68 -3.1, 1041.11 -3.85, 1366.27 0 M32 0 C362.55 4.67, 693.47 4.51, 1366.27 0 M1366.27 0 C1389.38 -0.67, 1399.02 12.11, 1398.27 32 M1366.27 0 C1386.52 0.66, 1399.76 11.78, 1398.27 32 M1398.27 32 C1395.64 218.63, 1396.48 405.12, 1398.27 696.1 M1398.27 32 C1395.84 177.2, 1396.23 321.71, 1398.27 696.1 M1398.27 696.1 C1397.64 717.18, 1386.85 726.28, 1366.27 728.1 M1398.27 696.1 C1399.12 717.44, 1387.86 726.7, 1366.27 728.1 M1366.27 728.1 C904.1 730.13, 443.07 730.01, 32 728.1 M1366.27 728.1 C1089.56 727.04, 811.95 726.45, 32 728.1 M32 728.1 C10.64 729.19, -0.12 718.5, 0 696.1 M32 728.1 C12.23 728.29, -1.16 719.54, 0 696.1 M0 696.1 C2.32 511.83, 2.43 328.3, 0 32 M0 696.1 C-1.71 443.19, -1.94 190.99, 0 32 M0 32 C0.19 10.92, 12.39 -1.13, 32 0 M0 32 C-0.83 12.82, 8.45 1.34, 32 0" stroke="#ededed" stroke-width="4" fill="none"></path></g><g stroke-linecap="round" transform="translate(1702.1473640546978 999.5330219028982) rotate(0 49.82051836415076 48.62993671293839)"><path d="M64.94 2.1 C72.53 3.92, 81.58 10.37, 87.23 16.69 C92.88 23.02, 97.29 32.17, 98.82 40.04 C100.35 47.92, 98.96 56.57, 96.42 63.94 C93.88 71.31, 89.63 78.95, 83.58 84.25 C77.52 89.56, 68.43 93.87, 60.08 95.75 C51.73 97.63, 41.34 98.02, 33.47 95.53 C25.61 93.03, 18.18 86.93, 12.9 80.8 C7.63 74.67, 3.64 66.81, 1.82 58.76 C0 50.71, -0.58 40.39, 1.97 32.5 C4.52 24.6, 10.66 16.77, 17.1 11.4 C23.55 6.03, 31.38 1.35, 40.63 0.28 C49.88 -0.78, 66.04 3.2, 72.6 5.01 C79.16 6.82, 80.31 10.41, 79.98 11.14 M36.46 2.13 C44.06 -0.61, 54.39 0.25, 62.44 2.1 C70.49 3.95, 78.79 7.57, 84.77 13.22 C90.75 18.88, 96.14 27.96, 98.34 36.03 C100.54 44.09, 99.89 53.78, 97.97 61.59 C96.05 69.41, 92.41 77.18, 86.8 82.91 C81.18 88.64, 72.28 93.76, 64.25 95.97 C56.22 98.18, 46.6 98.08, 38.61 96.15 C30.62 94.23, 22.48 90.09, 16.31 84.43 C10.14 78.76, 4.17 70.31, 1.59 62.16 C-0.99 54.01, -1.25 43.43, 0.82 35.53 C2.9 27.62, 7.86 20.24, 14.03 14.74 C20.19 9.25, 34.11 4.42, 37.8 2.56 C41.49 0.7, 36.16 2.93, 36.18 3.6" stroke="none" stroke-width="0" fill="#6e757c"></path><path d="M42.94 0.17 C50.73 -1.33, 61.41 1.12, 69.09 4.48 C76.77 7.84, 84.02 13.87, 88.99 20.32 C93.97 26.77, 97.72 35.34, 98.95 43.16 C100.18 50.98, 99.52 59.74, 96.37 67.24 C93.21 74.74, 86.7 83.25, 80.02 88.17 C73.34 93.08, 64.7 95.88, 56.29 96.71 C47.88 97.55, 37.44 96.3, 29.56 93.2 C21.69 90.1, 13.9 84.51, 9.05 78.13 C4.21 71.74, 1.46 63.14, 0.49 54.89 C-0.49 46.65, -0.22 36.2, 3.18 28.66 C6.58 21.11, 13.72 14.22, 20.88 9.61 C28.03 5.01, 41.8 2.51, 46.11 1.03 C50.42 -0.45, 46.8 0.13, 46.73 0.74 M28.08 4.04 C34.87 0.21, 45.54 0.58, 53.91 1.23 C62.28 1.88, 71.65 3.35, 78.3 7.93 C84.95 12.51, 90.44 21.58, 93.81 28.68 C97.18 35.79, 99.21 42.78, 98.53 50.56 C97.85 58.34, 93.95 68.18, 89.72 75.37 C85.49 82.55, 80.45 90.17, 73.15 93.65 C65.84 97.13, 54.43 96.9, 45.9 96.26 C37.38 95.62, 28.82 94.05, 22 89.81 C15.18 85.57, 8.46 78.21, 4.98 70.82 C1.51 63.42, 0.68 53.43, 1.14 45.44 C1.59 37.45, 3.31 29.8, 7.72 22.87 C12.12 15.95, 24.14 6.6, 27.57 3.91 C30.99 1.21, 27.97 5.62, 28.27 6.7" stroke="#ededed" stroke-width="4" fill="none"></path></g><g stroke-linecap="round" transform="translate(1861.7078471037626 1019.7301816193134) rotate(0 552.1473746174219 28.435463081690443)"><path d="M14.22 0 C350.72 -5.92, 689.36 -6.18, 1090.08 0 C1101.32 -2.32, 1101.8 2.13, 1104.29 14.22 C1102.06 22.22, 1102.06 35.69, 1104.29 42.65 C1104.01 53.06, 1099.72 58.15, 1090.08 56.87 C769.36 59.35, 448.71 60.85, 14.22 56.87 C5.07 59.73, 1.1 55.33, 0 42.65 C-0.99 34.71, -2.38 21.79, 0 14.22 C-0.75 5.34, 7.67 1.94, 14.22 0" stroke="none" stroke-width="0" fill="#6e757c"></path><path d="M14.22 0 C411.32 0.9, 808.55 0.89, 1090.08 0 M14.22 0 C307.59 2.73, 600.4 3.16, 1090.08 0 M1090.08 0 C1098.62 0.57, 1105.59 5.7, 1104.29 14.22 M1090.08 0 C1099.11 -1.64, 1103.93 2.61, 1104.29 14.22 M1104.29 14.22 C1102.69 21.81, 1106.27 32.72, 1104.29 42.65 M1104.29 14.22 C1104.22 24.7, 1104.16 34.52, 1104.29 42.65 M1104.29 42.65 C1105.04 52.14, 1099.78 55.66, 1090.08 56.87 M1104.29 42.65 C1105.36 53.84, 1100.61 56.35, 1090.08 56.87 M1090.08 56.87 C820.54 53.25, 552.27 54.78, 14.22 56.87 M1090.08 56.87 C671.07 54.54, 252.05 54.53, 14.22 56.87 M14.22 56.87 C6.1 57.04, -1.01 53.97, 0 42.65 M14.22 56.87 C4.21 55.27, -0.13 53.48, 0 42.65 M0 42.65 C1.4 36.84, 0.99 28.58, 0 14.22 M0 42.65 C0.24 36.89, 1 30.3, 0 14.22 M0 14.22 C-0.72 6.61, 2.81 1.16, 14.22 0 M0 14.22 C-1.34 4.06, 6.71 1.3, 14.22 0" stroke="#ededed" stroke-width="4" fill="none"></path></g><g stroke-linecap="round" transform="translate(1711.8414176754904 1201.1966382571109) rotate(0 634.773003937967 63.70940563160127)"><path d="M31.85 0 C493.18 -7, 956.71 -6.43, 1237.69 0 C1261.38 -3.24, 1270.34 13.78, 1269.55 31.85 C1266.85 49.01, 1268.26 65.59, 1269.55 95.56 C1272.72 115.6, 1258.38 130.9, 1237.69 127.42 C786.4 125.41, 337.04 125.61, 31.85 127.42 C9.63 127.4, 2.06 116.81, 0 95.56 C-0.95 81.64, -2.49 66.96, 0 31.85 C0.66 9.19, 13.36 0.7, 31.85 0" stroke="none" stroke-width="0" fill="#6e757c"></path><path d="M31.85 0 C396.43 -4.44, 761.79 -4.73, 1237.69 0 M31.85 0 C306.16 -2.02, 581.3 -2.4, 1237.69 0 M1237.69 0 C1258.66 1.99, 1268.9 10.54, 1269.55 31.85 M1237.69 0 C1259.82 1.34, 1271.18 12.33, 1269.55 31.85 M1269.55 31.85 C1269.16 48.26, 1269.39 67.04, 1269.55 95.56 M1269.55 31.85 C1269.61 50.64, 1269.52 69.6, 1269.55 95.56 M1269.55 95.56 C1267.69 118.18, 1260.88 128.54, 1237.69 127.42 M1269.55 95.56 C1269.28 117.63, 1257.27 126.86, 1237.69 127.42 M1237.69 127.42 C791.23 126.81, 344.52 125.93, 31.85 127.42 M1237.69 127.42 C787.21 130.28, 336.29 129.85, 31.85 127.42 M31.85 127.42 C9.88 128.53, 0.01 116.4, 0 95.56 M31.85 127.42 C10.53 128.12, 2.22 116.35, 0 95.56 M0 95.56 C1.82 82.44, 1.44 65.85, 0 31.85 M0 95.56 C-0.35 76.68, 1.24 57.07, 0 31.85 M0 31.85 C0.56 10.91, 11.87 -1.39, 31.85 0 M0 31.85 C-0.01 11.05, 10.75 -0.24, 31.85 0" stroke="#ededed" stroke-width="4" fill="none"></path></g><g stroke-linecap="round" transform="translate(1718.5181664918036 1386.6535833781818) rotate(0 212.71754127628913 110.92388425865147)"><path d="M32 0 C138.12 -0.05, 239.89 -2.85, 393.44 0 C412.43 1.27, 427.2 12.45, 425.44 32 C428.33 86.86, 428.01 134.26, 425.44 189.85 C426.83 213.62, 416.56 223.57, 393.44 221.85 C261.09 220.81, 130.46 220.85, 32 221.85 C10.1 222.83, -2.52 208.51, 0 189.85 C1.79 152.56, 2.65 109.9, 0 32 C-1.56 10.84, 10.86 -1.55, 32 0" stroke="none" stroke-width="0" fill="#3791e0"></path><path d="M32 0 C104.11 2.05, 178.12 1.76, 393.44 0 M32 0 C112.77 -2.24, 192.23 -1.61, 393.44 0 M393.44 0 C414.25 -1.72, 424.91 12.24, 425.44 32 M393.44 0 C416.39 0.76, 424.05 8.94, 425.44 32 M425.44 32 C424.76 74.17, 425.53 118.88, 425.44 189.85 M425.44 32 C426.06 67.56, 425.25 102.43, 425.44 189.85 M425.44 189.85 C423.66 211.3, 414.64 223.46, 393.44 221.85 M425.44 189.85 C424.35 210.99, 413.97 222.8, 393.44 221.85 M393.44 221.85 C252.61 223.05, 112.89 222.68, 32 221.85 M393.44 221.85 C284.75 220.48, 175.24 221.04, 32 221.85 M32 221.85 C9.97 223.46, -0.16 210.22, 0 189.85 M32 221.85 C10.58 220.42, -0.52 209.36, 0 189.85 M0 189.85 C2.53 130.88, 2.69 68.2, 0 32 M0 189.85 C0.26 143.77, -0.18 97.35, 0 32 M0 32 C-0.3 10.81, 9.74 -1.12, 32 0 M0 32 C-0.87 8.65, 11.92 -2.2, 32 0" stroke="#ededed" stroke-width="4" fill="none"></path></g><g stroke-linecap="round" transform="translate(2184.854472512832 1389.8282588181778) rotate(0 117.95935842100369 106.50873378562017)"><path d="M32 0 C78.87 -4.64, 128.92 -3.58, 203.92 0 C225.67 -2.32, 232.62 7.37, 235.92 32 C232.45 76.9, 230.91 116.41, 235.92 181.02 C237.76 202.8, 225.11 211.71, 203.92 213.02 C169.48 213.89, 135.88 207.56, 32 213.02 C10.89 212.72, 1.18 198.96, 0 181.02 C2.03 148.25, -1.49 115.74, 0 32 C1.22 7.34, 8.31 3.21, 32 0" stroke="none" stroke-width="0" fill="#6e757c"></path><path d="M32 0 C80.34 -1.03, 125.74 0.5, 203.92 0 M32 0 C82.21 1.5, 134.4 1.01, 203.92 0 M203.92 0 C224.27 1.44, 235.49 10.49, 235.92 32 M203.92 0 C225.03 -2.08, 233.69 10.69, 235.92 32 M235.92 32 C236.85 79.43, 237.38 130.99, 235.92 181.02 M235.92 32 C235.23 64.71, 234.8 97.01, 235.92 181.02 M235.92 181.02 C235.02 200.39, 223.62 213.07, 203.92 213.02 M235.92 181.02 C238.07 202.02, 223.74 213.26, 203.92 213.02 M203.92 213.02 C159.44 211.11, 109.84 212.24, 32 213.02 M203.92 213.02 C143.71 211.56, 82.09 212.34, 32 213.02 M32 213.02 C9.19 212.08, 1.62 201.89, 0 181.02 M32 213.02 C8.38 211.08, 0.02 200.87, 0 181.02 M0 181.02 C1.61 129.05, 0.6 75.43, 0 32 M0 181.02 C0.91 135.59, 2.07 91.72, 0 32 M0 32 C0.97 10.77, 9.92 0.79, 32 0 M0 32 C0.65 8.62, 9.57 -1.95, 32 0" stroke="#ededed" stroke-width="4" fill="none"></path></g><g stroke-linecap="round" transform="translate(2467.6710219877273 1392.8735956291366) rotate(0 117.95935842100369 106.50873378562017)"><path d="M32 0 C84.43 -2.34, 139.36 1.66, 203.92 0 C227.5 3.4, 233.18 8.46, 235.92 32 C235.91 66.88, 237.44 97.64, 235.92 181.02 C234.46 203.11, 226.68 211.57, 203.92 213.02 C146.19 206.91, 90.07 207.85, 32 213.02 C12.31 209.85, -0.64 203.96, 0 181.02 C2.64 149.7, 2.45 116.39, 0 32 C1.44 8.29, 8.34 1.94, 32 0" stroke="none" stroke-width="0" fill="#6e757c"></path><path d="M32 0 C71.35 -3.17, 106.52 0.22, 203.92 0 M32 0 C73.45 -1.77, 112.47 -1.65, 203.92 0 M203.92 0 C223.78 0.13, 237.47 10.73, 235.92 32 M203.92 0 C225.02 -1.38, 236.29 9.8, 235.92 32 M235.92 32 C238.3 73.44, 239.26 116.46, 235.92 181.02 M235.92 32 C235.68 91.21, 234.5 148.89, 235.92 181.02 M235.92 181.02 C237.43 203.35, 226.6 212.43, 203.92 213.02 M235.92 181.02 C236.94 202.07, 226.54 214.64, 203.92 213.02 M203.92 213.02 C165.27 213.96, 130.73 210.57, 32 213.02 M203.92 213.02 C135.99 214.95, 67.07 214.97, 32 213.02 M32 213.02 C12.4 211.57, 1.14 202.11, 0 181.02 M32 213.02 C11.77 214.49, 0.79 201.63, 0 181.02 M0 181.02 C1.12 144.52, -1.28 110.42, 0 32 M0 181.02 C0.7 148.6, -0.99 118.27, 0 32 M0 32 C-0.91 9.19, 10.98 0.52, 32 0 M0 32 C-1.06 9.81, 10.61 -1.94, 32 0" stroke="#ededed" stroke-width="4" fill="none"></path></g><g stroke-linecap="round" transform="translate(2744.0559141823333 1390.7218711642504) rotate(0 117.95935842100369 106.50873378562017)"><path d="M32 0 C70.54 1.68, 110.98 2.53, 203.92 0 C227.73 3.58, 232.43 13.74, 235.92 32 C241.91 65.95, 239.42 101.23, 235.92 181.02 C234.81 204.12, 227.22 210.75, 203.92 213.02 C143.52 207.26, 74.86 214.27, 32 213.02 C11.33 214.76, -3.07 203.21, 0 181.02 C1.68 134.6, -0.86 95.84, 0 32 C-0.99 10.05, 13.65 -1.26, 32 0" stroke="none" stroke-width="0" fill="#6e757c"></path><path d="M32 0 C85.03 -3.16, 139.68 -3.14, 203.92 0 M32 0 C69 -1.96, 107.04 -0.74, 203.92 0 M203.92 0 C226.14 1.7, 234.34 12.43, 235.92 32 M203.92 0 C224.28 -1.95, 234.26 8.52, 235.92 32 M235.92 32 C237.06 75.54, 238.83 118.27, 235.92 181.02 M235.92 32 C234.77 66.35, 235.36 98.31, 235.92 181.02 M235.92 181.02 C234.41 202.4, 223.3 214.02, 203.92 213.02 M235.92 181.02 C237.7 202.55, 227.1 211.07, 203.92 213.02 M203.92 213.02 C138.53 215.58, 68.86 215.1, 32 213.02 M203.92 213.02 C146.57 212.92, 90.76 213.55, 32 213.02 M32 213.02 C12.09 214.34, 0.78 202.04, 0 181.02 M32 213.02 C12.53 210.97, 0.16 202.56, 0 181.02 M0 181.02 C-0.52 128.09, 0.28 79.63, 0 32 M0 181.02 C1.15 137.78, 0.32 95.58, 0 32 M0 32 C-0.65 11.34, 11.79 0.44, 32 0 M0 32 C-0.53 9.24, 9.29 -0.06, 32 0" stroke="#ededed" stroke-width="4" fill="none"></path></g></svg>